<svg xmlns="http://www.w3.org/2000/svg" aria-hidden="true" style="position:absolute;width:0;height:0;overflow:hidden"><defs><symbol id="burger-menu" viewBox="0 0 32 32"><path stroke-linecap="round" stroke-linejoin="round" stroke-width="2" d="M28 13.333H4M28 8H4M28 18.667H4M28 24H4"/></symbol><symbol id="arrow-right" viewBox="0 0 32 32"><path stroke-linecap="round" stroke-linejoin="round" stroke-width="2.773" d="M16 29.867 29.867 16m0 0L16 2.133M29.867 16H2.134"/></symbol><symbol id="stroke" viewBox="0 0 32 32"><path d="m14.254 13.505.363.372L10.151 1.08l5.321 12.466.018-.52.441-13.027.441 13.026.018.52 5.321-12.466-4.466 12.797 9.465-9.702-8.787 10.32 12.331-5.628-11.922 6.449 13.531-.793-13.446 1.707 12.904 4.148-13.155-3.266 10.534 8.53-11.087-7.798 6.741 11.759-7.521-11.276 2.038 13.4-2.94-13.232-2.94 13.232 2.038-13.4-7.521 11.276 6.741-11.759-11.087 7.798 10.534-8.53L.541 20.377l12.904-4.148-13.446-1.707 13.531.793L1.608 8.866l12.331 5.628-8.787-10.32 9.102 9.33zm.931.566-.646.4-.458.607-.208.731.07.757.339.68.562.512.709.275h.76l.709-.275.562-.512.339-.68.07-.757-.208-.731-.458-.607-.646-.4-.747-.14-.747.14z"/></symbol><symbol id="star" viewBox="0 0 34 32"><path d="M15.24 1.561c.504-1.552 2.699-1.552 3.204 0l2.558 7.872a1.684 1.684 0 0 0 1.602 1.164h8.277c1.632 0 2.31 2.088.99 3.047l-6.696 4.865a1.685 1.685 0 0 0-.612 1.883l2.558 7.872c.504 1.552-1.272 2.842-2.592 1.883l-6.696-4.865a1.684 1.684 0 0 0-1.98 0l-6.696 4.865c-1.32.959-3.096-.331-2.592-1.883l2.558-7.872a1.685 1.685 0 0 0-.612-1.883l-6.696-4.865c-1.32-.959-.642-3.047.99-3.047h8.277c.73 0 1.376-.47 1.602-1.164l2.558-7.872z"/></symbol><symbol id="arrow-top" viewBox="0 0 32 32"><path fill="#f4f4f4" stroke="#f4f4f4" stroke-width=".48" d="M17.036 7.986v16.338h-1.738V7.986l-8.169 8.169L5.9 14.926 16.167 4.659l10.267 10.267-1.229 1.229-8.169-8.169z" style="fill:var(--color1, #f4f4f4);stroke:var(--color1, #f4f4f4)"/></symbol><symbol id="facebook" viewBox="0 0 32 32"><path d="M19.52 4.64h.96v3.6h-1.2c-.48 0-.96 0-1.2.24s-.24.48-.24 1.04v1.28h2.64v3.04h-2.64v13.2h-4.08V13.76H11.6v-3.04h2.16V9.68c0-1.76.24-3.04.72-3.6.72-1.04 2.16-1.52 4.32-1.52.24.08.48.08.72.08z"/></symbol><symbol id="fluent-food" viewBox="0 0 32 32"><path d="M7.36 9.143H5.44c-.532 0-.96.459-.96 1.029v4.457h-.96c-.176 0-.32.154-.32.343v2.057c0 .188.144.343.32.343h.96v4.457c0 .57.428 1.028.96 1.028h1.92c.532 0 .96-.459.96-1.028V10.172c0-.57-.428-1.029-.96-1.029zm21.12 5.486h-.96v-4.457c0-.57-.428-1.029-.96-1.029h-1.92c-.532 0-.96.459-.96 1.029v11.657c0 .57.428 1.028.96 1.028h1.92c.532 0 .96-.459.96-1.028v-4.457h.96c.176 0 .32-.154.32-.343v-2.057c0-.189-.144-.343-.32-.343zM21.44 6.4h-1.92c-.532 0-.96.459-.96 1.029v7.2h-5.12v-7.2c0-.57-.428-1.029-.96-1.029h-1.92c-.532 0-.96.459-.96 1.029v17.143c0 .57.428 1.029.96 1.029h1.92c.532 0 .96-.459.96-1.029v-7.2h5.12v7.2c0 .57.428 1.029.96 1.029h1.92c.532 0 .96-.459.96-1.029V7.429c0-.57-.428-1.029-.96-1.029z"/></symbol><symbol id="heart" viewBox="0 0 32 32"><path stroke-linecap="round" stroke-linejoin="round" stroke-width="2.4" d="M27.787 6.147a7.345 7.345 0 0 0-5.187-2.15 7.33 7.33 0 0 0-5.187 2.15L16 7.56l-1.413-1.413a7.333 7.333 0 0 0-10.374 0 7.333 7.333 0 0 0 0 10.374L16 28.308l11.787-11.787a7.345 7.345 0 0 0 2.15-5.187 7.33 7.33 0 0 0-2.15-5.187z"/></symbol><symbol id="instagram" viewBox="0 0 32 32"><path d="M28.718 10.756a9.264 9.264 0 0 0-.596-3.145 6.547 6.547 0 0 0-3.743-3.737 9.42 9.42 0 0 0-3.108-.596c-1.368-.061-1.801-.078-5.273-.078s-3.917 0-5.274.078a9.418 9.418 0 0 0-3.106.596 6.541 6.541 0 0 0-3.743 3.737 9.288 9.288 0 0 0-.596 3.101c-.061 1.367-.08 1.8-.08 5.265s0 3.909.08 5.265a9.335 9.335 0 0 0 .596 3.104 6.548 6.548 0 0 0 3.744 3.735 9.37 9.37 0 0 0 3.106.639c1.369.061 1.803.08 5.274.08s3.916 0 5.274-.08a9.357 9.357 0 0 0 3.108-.595 6.555 6.555 0 0 0 3.743-3.737 9.35 9.35 0 0 0 .596-3.104c.061-1.365.08-1.798.08-5.265-.003-3.466-.003-3.906-.082-5.264zM15.99 22.531c-3.631 0-6.572-2.936-6.572-6.561s2.941-6.561 6.572-6.561c3.628 0 6.572 2.936 6.572 6.561s-2.944 6.561-6.572 6.561zm6.834-11.835a1.53 1.53 0 1 1 0-3.06 1.53 1.53 0 1 1 0 3.06z"/><path d="M15.992 19.976a4.004 4.004 0 1 0 0-8.009 4.004 4.004 0 0 0 0 8.009z"/></symbol><symbol id="commas" viewBox="0 0 32 32"><path fill="#f4f4f4" d="M8.201 17.469c1.546-.613 2.785-.452 3.719.481s1.21 2.421.831 4.463c-.292 1.517-.933 2.683-1.925 3.5-.963.787-2.085 1.181-3.369 1.181-1.75 0-2.96-.671-3.631-2.013-.671-1.371-.802-3.208-.394-5.512.233-1.254.613-2.523 1.137-3.806s1.225-2.596 2.1-3.938 2.013-2.508 3.413-3.5 2.946-1.633 4.637-1.925l-.437 4.638c-1.429.292-2.698 1.035-3.806 2.231-1.108 1.167-1.867 2.567-2.275 4.2zm13.169 0c1.546-.613 2.785-.452 3.719.481s1.21 2.421.831 4.463c-.292 1.517-.933 2.683-1.925 3.5-.963.787-2.085 1.181-3.369 1.181-1.75 0-2.96-.671-3.631-2.013-.671-1.371-.802-3.208-.394-5.512.233-1.254.613-2.523 1.137-3.806s1.225-2.596 2.1-3.938 2.013-2.508 3.413-3.5 2.946-1.633 4.637-1.925l-.437 4.638c-1.429.292-2.698 1.035-3.806 2.231-1.108 1.167-1.867 2.567-2.275 4.2z" style="fill:var(--color1, #f4f4f4)"/></symbol><symbol id="run" viewBox="0 0 32 32"><path d="M29.647 9.451a1.185 1.185 0 0 0-1.667-.149l-3.282 2.757-1.509-3.739a1.163 1.163 0 0 0-.229-.362 3.215 3.215 0 0 0-1.582-1.617 3.24 3.24 0 0 0-.982-.262c-.073-.038-.139-.088-.222-.114l-5.775-1.61a1.19 1.19 0 0 0-.917.125 1.155 1.155 0 0 0-.719.672l-2.175 5.592a1.188 1.188 0 0 0 .676 1.534 1.187 1.187 0 0 0 1.532-.678l1.837-4.722 2.63.731c-.064.104-.133.201-.185.312l-3.372 7.309c-.049.107-.075.217-.109.328l-4.098 6.871-6.859 2.294a1.751 1.751 0 0 0 2.081 2.819l7.018-2.417c.215-.156.371-.36.489-.58.088-.094.189-.168.256-.284l2.443-4.096 4.337 3.696-4.641 5.23a1.75 1.75 0 1 0 2.622 2.32l5.791-6.524a1.72 1.72 0 0 0 .36-.676c.043-.132.043-.269.054-.406 0-.069.026-.132.021-.196a1.72 1.72 0 0 0-.601-1.274l-3.991-3.403c.288-.274.532-.6.709-.983l2.585-5.599.828 2.206c.035.196.1.388.239.549.125.149.284.248.454.317.017.009.038.01.059.016.107.038.216.075.329.08.133.012.269-.005.405-.043l.005-.002c.036-.009.073-.002.109-.017a1.17 1.17 0 0 0 .466-.34l4.71-3.998c.501-.421.289-1.166-.132-1.667zM23.689 6.602a3.301 3.301 0 1 0 0-6.602 3.301 3.301 0 0 0 0 6.602z"/></symbol><symbol id="search" viewBox="0 0 32 32"><path stroke-linecap="round" stroke-linejoin="round" stroke-width="2.667" d="M14.667 25.333c5.891 0 10.667-4.776 10.667-10.667S20.558 3.999 14.667 3.999 4 8.775 4 14.666s4.776 10.667 10.667 10.667zM28 28l-5.8-5.8"/></symbol><symbol id="trash" viewBox="0 0 32 32"><path stroke-linecap="round" stroke-linejoin="round" stroke-width="2.4" d="M21.333 8V6.933c0-1.493 0-2.24-.291-2.811a2.666 2.666 0 0 0-1.165-1.165c-.57-.291-1.317-.291-2.811-.291h-2.133c-1.493 0-2.24 0-2.811.291-.502.256-.91.664-1.165 1.165-.291.57-.291 1.317-.291 2.811V8m2.667 7.333V22m5.334-6.667V22M4 8h24m-2.667 0v14.933c0 2.24 0 3.36-.436 4.216a3.996 3.996 0 0 1-1.748 1.748c-.856.436-1.976.436-4.216.436h-5.867c-2.24 0-3.36 0-4.216-.436a3.996 3.996 0 0 1-1.748-1.748c-.436-.856-.436-1.976-.436-4.216V8"/></symbol><symbol id="close" viewBox="0 0 32 32"><path stroke-linecap="round" stroke-linejoin="round" stroke-width="2.667" d="M22.667 9.333 9.334 22.666M9.333 9.333l13.333 13.333"/></symbol><symbol id="youtube" viewBox="0 0 32 32"><path d="M24.24 6c-1.36-.08-4.16-.16-8.4-.16h-.56c-4.08 0-6.8.08-8.16.24-1.84.16-3.12.64-3.84 1.28-.64.56-1.12 1.6-1.28 2.96-.08.88-.16 2.72-.16 5.52v.4c0 2.64.08 4.48.24 5.36.24 1.28.64 2.24 1.44 2.8.8.64 2.16 1.04 4.08 1.2 1.36.08 4.16.16 8.4.16h.56c4.08 0 6.8-.08 8.16-.24 1.84-.16 3.12-.64 3.84-1.28.64-.56 1.12-1.6 1.28-2.96.08-.88.16-2.72.16-5.52v-.4c0-2.64-.08-4.48-.24-5.36-.24-1.28-.64-2.24-1.44-2.8-.8-.64-2.16-1.04-4.08-1.2zm-3.12 9.84-8.8 5.28V10.56l8.8 5.28z"/></symbol><symbol id="logo" viewBox="0 0 302 32"><path d="M11.383 18.926 0 0h6.811l7.634 13.12h.091L22.17 0h6.811L17.598 18.926V32h-6.217V18.926zM28.961 26.743V5.257L34.218 0h16.457l5.257 5.257v21.486L50.675 32H34.218l-5.257-5.257zm18.423-.046 2.331-2.331V7.635l-2.331-2.331H37.51l-2.331 2.331v16.731l2.331 2.331h9.874zM60.284 26.514V0h6.217v24.366l2.331 2.331h8.96l2.331-2.331V0h6.217v26.514L80.854 32H65.768l-5.486-5.486zM116.293 21.394V32h-6.217v-9.189l-2.743-3.063h-9.966v12.251H91.15v-32h20.069l4.891 4.937v9.691l-3.109 3.154 3.291 3.611zm-18.926-6.765h11.017l1.6-1.6V6.812l-1.6-1.6H97.367v9.417zM132.168 0h23.131v5.257h-16.914v8.091h15.589v5.166h-15.589v8.229h16.914V32h-23.131V0zM158.748 0h5.577l14.263 21.714h.091V0h5.989v32h-5.577l-14.263-21.669h-.091V32h-5.989V0zM189.48 0h23.131v5.257h-16.914v8.091h15.589v5.166h-15.589v8.229h16.914V32H189.48V0zM241.205 21.394V32h-6.217v-9.189l-2.743-3.063h-9.967v12.251h-6.217v-32h20.07l4.891 4.937v9.691l-3.109 3.154 3.291 3.611zm-18.927-6.765h11.018l1.6-1.6V6.812l-1.6-1.6h-11.018v9.417zM245.31 26.743V5.257L250.567 0h15.909l5.166 5.166v4.891h-6.217V7.451l-2.149-2.149h-9.417l-2.331 2.331v16.731l2.331 2.331h9.509l2.24-2.24v-4.983h-6.857v-5.303h12.891V26.74l-5.257 5.257h-15.817l-5.257-5.257zM283.035 18.926 271.652 0h6.811l7.634 13.12h.091L293.822 0h6.811L289.25 18.926V32h-6.217V18.926z"/></symbol><symbol id="icon-sun" viewBox="0 0 32 32"><path d="m14.254 13.505.363.372L10.151 1.08l5.321 12.466.018-.52.441-13.027.441 13.026.018.52 5.321-12.466-4.466 12.797 9.465-9.702-8.787 10.32 12.331-5.628-11.922 6.449 13.531-.793-13.446 1.707 12.904 4.148-13.155-3.266 10.534 8.53-11.087-7.798 6.741 11.759-7.521-11.276 2.038 13.4-2.94-13.232-2.94 13.232 2.038-13.4-7.521 11.276 6.741-11.759-11.087 7.798 10.534-8.53L.541 20.377l12.904-4.148-13.446-1.707 13.531.793L1.608 8.866l12.331 5.628-8.787-10.32 9.102 9.33zm.931.566-.646.4-.458.607-.208.731.07.757.339.68.562.512.709.275h.76l.709-.275.562-.512.339-.68.07-.757-.208-.731-.458-.607-.646-.4-.747-.14-.747.14z"/></symbol><symbol id="BadRequast" viewBox="0 0 32 32"><path fill="#ebebeb" d="M32 24.473zM28.794 25.504h-2.12v.016h2.12v-.016zM17.486 25.303h-.825v.016h.825v-.016zM22.379 25.371h-1.737v.016h1.737v-.016zM26.61 24.909h-3.591v.016h3.591v-.016zM5.055 25.65H3.357v.016h1.698v-.016zM7.097 25.65H5.625v.016h1.472v-.016zM12.276 25.295H8.384v.016h3.892v-.016zM15.169 21.619H2.811a.366.366 0 0 1-.365-.365V3.882c0-.201.164-.365.365-.365h12.358c.201 0 .365.164.365.365v17.372a.366.366 0 0 1-.365.365zM2.811 3.533a.35.35 0 0 0-.349.349v17.372a.35.35 0 0 0 .349.349h12.358a.35.35 0 0 0 .349-.349V3.882a.35.35 0 0 0-.349-.349H2.811zM29.012 21.619H16.654a.366.366 0 0 1-.365-.365V3.882c0-.201.164-.365.365-.365h12.358c.201 0 .365.164.365.365v17.372a.366.366 0 0 1-.365.365zM16.654 3.533a.35.35 0 0 0-.349.349v17.372a.35.35 0 0 0 .349.349h12.358a.35.35 0 0 0 .349-.349V3.882a.35.35 0 0 0-.349-.349H16.654z" style="fill:var(--color1, #ebebeb)"/><path fill="#ebebeb" d="M29.892 12.427a3.453 3.453 0 0 0-.063-2.115 2.976 2.976 0 0 0-1.342-4.471 5.137 5.137 0 0 0-8.123-3.435 2.627 2.627 0 0 0-4.525 1.787 3.962 3.962 0 0 0-2.248 6.442 2.983 2.983 0 0 0 3.324 4.341 4.587 4.587 0 0 0 2.45 1.72 4.594 4.594 0 0 0 3.747-.539c.481 1.12.877 2.799.025 4.446 3.094-.303 5.328-3.271 4.873-5.99a3.455 3.455 0 0 0 1.882-2.186z" style="fill:var(--color1, #ebebeb)"/><path fill="#fff" d="M23.956 19.989a.064.064 0 0 1-.045-.019.062.062 0 0 1-.016-.063c.436-1.518.039-2.973-.371-3.927l-.208-.483-.444.282a4.157 4.157 0 0 1-3.382.486 4.118 4.118 0 0 1-2.212-1.553l-.177-.245-.293.073a2.531 2.531 0 0 1-2.826-1.235 2.52 2.52 0 0 1 .002-2.454l.149-.27-.199-.236a3.51 3.51 0 0 1-.692-3.242 3.505 3.505 0 0 1 2.686-2.471l.355-.072.004-.363a2.189 2.189 0 0 1 2.177-2.156 2.184 2.184 0 0 1 1.575.673l.271.284.317-.232a4.728 4.728 0 0 1 2.77-.909 4.696 4.696 0 0 1 4.645 4.044l.036.259.243.096a2.516 2.516 0 0 1 1.497 3.05 2.509 2.509 0 0 1-.357.747l-.132.189.077.217a3.012 3.012 0 0 1-1.584 3.744l-.311.143.057.338c.194 1.16-.155 2.428-.959 3.477a5.183 5.183 0 0 1-2.653 1.825zm-.611-4.649a.065.065 0 0 1 .059.039l.237.552c.408.949.803 2.387.408 3.9a5.062 5.062 0 0 0 2.459-1.744c.782-1.021 1.123-2.253.934-3.378l-.065-.386a.064.064 0 0 1 .036-.069l.356-.164a2.886 2.886 0 0 0 1.516-3.586l-.088-.248a.063.063 0 0 1 .008-.058l.151-.216c.151-.217.265-.456.339-.709a2.387 2.387 0 0 0-1.421-2.895l-.278-.11a.064.064 0 0 1-.04-.051l-.041-.296a4.568 4.568 0 0 0-4.518-3.934c-.958 0-1.915.314-2.695.884l-.362.265a.064.064 0 0 1-.084-.007l-.31-.325a2.043 2.043 0 0 0-1.483-.633A2.06 2.06 0 0 0 16.414 4.2l-.005.414c0 .03-.022.056-.051.062l-.406.082a3.385 3.385 0 0 0-1.921 5.505l.227.27c.017.02.02.049.007.072l-.171.308a2.39 2.39 0 0 0-.002 2.33 2.408 2.408 0 0 0 2.683 1.173l.335-.083a.063.063 0 0 1 .067.025l.203.28a3.992 3.992 0 0 0 2.144 1.505 4.026 4.026 0 0 0 3.278-.471l.507-.322a.059.059 0 0 1 .034-.01z" style="fill:var(--color2, #fff)"/><path fill="#fff" d="m19.468 9.676-1.715-.267.027-.172c.045-.292.115-.524.21-.696s.219-.323.373-.453.49-.349 1.006-.657c.275-.161.425-.324.451-.489s-.003-.302-.087-.409c-.084-.107-.225-.176-.423-.207-.214-.033-.402.01-.563.13s-.29.353-.384.699l-1.718-.489c.16-.635.475-1.117.944-1.446s1.125-.428 1.967-.297c.656.102 1.164.322 1.525.658.49.455.687.992.591 1.609-.04.256-.149.492-.328.707s-.513.461-1.002.736c-.341.194-.563.357-.666.491s-.172.318-.208.552zm-1.845.18 1.837.286-.252 1.621-1.837-.286.252-1.621zM24.23 13.147l-.952-.772.077-.095c.131-.162.256-.279.375-.35s.248-.119.389-.144c.14-.025.423-.039.847-.044.225-.001.374-.047.449-.139s.105-.185.092-.28c-.013-.095-.075-.187-.185-.276-.119-.096-.249-.136-.39-.121s-.302.112-.482.29l-.875-.908c.323-.331.686-.513 1.089-.548s.838.137 1.306.516c.364.295.597.609.697.943.138.452.068.849-.21 1.192-.115.142-.265.247-.451.316s-.476.1-.873.094c-.277-.003-.471.018-.58.063s-.218.133-.323.263zm-1.19-.545 1.02.826-.729.9-1.02-.826.729-.9zM24.88 6.963l-.412-.563.056-.041c.096-.07.181-.116.257-.138s.154-.03.235-.023.238.04.473.099c.124.032.213.028.267-.011s.085-.087.091-.141-.014-.114-.062-.179c-.051-.07-.117-.111-.197-.123s-.183.018-.308.09l-.35-.627c.226-.135.452-.183.679-.143s.442.197.644.474c.158.215.24.422.247.62.01.269-.086.477-.288.625-.084.061-.182.098-.294.108s-.277-.014-.494-.075c-.152-.042-.262-.058-.329-.049s-.139.042-.216.098zm-.576-.472.442.603-.532.389-.442-.603.532-.389z" style="fill:var(--color2, #fff)"/><path fill="#e6e6e6" d="M8.213 14.309a3.001 3.001 0 0 1-1.533-.426c-.649-.387-1.108-.987-1.264-1.65a1.862 1.862 0 0 1-1.726-1.757 1.607 1.607 0 0 1-.365-.343A1.599 1.599 0 0 1 3.469 8a2.742 2.742 0 0 1 .985-2.788 2.716 2.716 0 0 1 2.321-.499 1.423 1.423 0 0 1 1.481-.84 1.414 1.414 0 0 1 1.123.833 2.119 2.119 0 0 1 2.021.792c.429.552.558 1.275.348 1.941a1.613 1.613 0 0 1-.79 2.816 2.461 2.461 0 0 1-2.772 1.791c-.007.622.138 1.465.834 2.067a.05.05 0 0 1-.019.086 2.832 2.832 0 0 1-.786.111zM6.127 4.735a2.64 2.64 0 0 0-2.553 3.268.052.052 0 0 1-.014.049 1.5 1.5 0 0 0-.155 2.019c.102.131.224.244.362.335a.05.05 0 0 1 .023.04 1.763 1.763 0 0 0 1.67 1.689.048.048 0 0 1 .046.039c.141.651.588 1.242 1.226 1.623.658.392 1.437.51 2.152.329-.687-.642-.814-1.514-.798-2.142 0-.015.007-.028.019-.038s.026-.013.041-.01a2.363 2.363 0 0 0 1.885-.455c.419-.325.709-.769.839-1.284a.049.049 0 0 1 .042-.037 1.512 1.512 0 0 0 .749-2.665.052.052 0 0 1-.016-.055 2.02 2.02 0 0 0-.322-1.88 2.019 2.019 0 0 0-1.963-.748.052.052 0 0 1-.056-.03 1.316 1.316 0 0 0-1.06-.809 1.326 1.326 0 0 0-1.392.818.05.05 0 0 1-.059.03 2.662 2.662 0 0 0-.666-.085z" style="fill:var(--color3, #e6e6e6)"/><path fill="#ebebeb" d="m6.438 8.957-.884.208-.021-.088c-.035-.15-.047-.277-.035-.378s.043-.2.092-.293c.049-.093.169-.266.358-.516.101-.132.142-.241.122-.326s-.061-.146-.122-.181-.144-.041-.246-.017c-.11.026-.193.084-.248.174s-.071.228-.049.414l-.929.101c-.047-.339.011-.635.173-.887s.461-.429.895-.531c.338-.08.628-.073.869.019.327.124.528.345.603.663.031.132.024.268-.02.407s-.158.324-.341.554c-.127.161-.203.284-.226.369s-.021.188.008.309zm-.859.451.947-.223.197.835-.947.223-.197-.835zM8.688 7.09l-.613-.186.019-.061a.604.604 0 0 1 .273-.389c.063-.04.197-.102.402-.188.109-.045.172-.096.19-.156s.015-.111-.011-.154c-.025-.043-.073-.076-.144-.098-.076-.023-.147-.017-.213.018s-.124.114-.177.236l-.603-.268c.092-.224.232-.384.42-.48s.433-.098.735-.007c.235.071.409.178.524.32.156.192.2.398.133.619-.028.092-.08.172-.156.242s-.211.142-.405.217c-.135.053-.225.101-.269.145s-.079.107-.105.191zm-.684-.029.657.2-.176.58-.657-.2.176-.58z" style="fill:var(--color1, #ebebeb)"/><path fill="#f5f5f5" d="M16 27.364c6.853 0 12.409-.324 12.409-.725s-5.556-.725-12.409-.725-12.409.324-12.409.725c0 .4 5.556.725 12.409.725z" style="fill:var(--color4, #f5f5f5)"/><path fill="#407bff" d="m10.087 15.836-.059-.025c.053-.125.083-.229.093-.317l.064.007c-.01.095-.042.204-.098.335zm-.025-.733a.854.854 0 0 0-.668-.498l.011-.063a.914.914 0 0 1 .715.534l-.058.026zM9.727 16.48l-.63.287-.029-.063c-.049-.107-.076-.2-.082-.278s.002-.155.025-.233a3.81 3.81 0 0 1 .191-.439c.056-.114.071-.201.043-.262s-.067-.1-.118-.117c-.051-.017-.113-.009-.186.024-.078.036-.132.091-.159.167s-.019.181.025.317l-.679.213c-.086-.246-.086-.476-.002-.688s.281-.389.59-.53c.241-.11.458-.148.652-.115.263.044.446.18.549.406.043.094.058.196.046.307s-.07.266-.173.465c-.071.139-.11.242-.114.309s.012.143.052.23zm-.575.464.674-.307.271.595-.674.307-.271-.595zM8.169 17.903l-.32.435-.043-.032c-.074-.055-.128-.107-.162-.158s-.058-.107-.071-.168a2.827 2.827 0 0 1-.037-.372c-.005-.099-.028-.164-.07-.195s-.084-.043-.125-.035c-.042.008-.081.037-.118.087-.04.054-.055.112-.045.174s.056.131.138.206l-.382.404c-.152-.136-.24-.292-.263-.468s.044-.372.201-.585a.872.872 0 0 1 .401-.326.538.538 0 0 1 .529.068c.065.048.114.112.148.192s.054.208.059.382c.004.122.017.207.04.254s.063.093.122.137zm-.216.535.343-.466.411.303-.343.466-.411-.303zM14.982 26.409a.288.288 0 0 1-.255-.155c-.257-.497-.58-1.08-1.162-1.711a.287.287 0 0 1-.065-.274c.216-.75.555-1.774.558-1.784a.287.287 0 1 1 .545.181 62.26 62.26 0 0 0-.507 1.61c.535.606.864 1.181 1.14 1.715a.287.287 0 0 1-.255.419z" style="fill:var(--color5, #407bff)"/><path fill="#263238" d="M15.46 26.639h-2.226l1.18-.669.989.038.057.631zM15.246 23.944c1.014-.317 1.622-1.254 1.36-2.094s-1.297-1.264-2.311-.947c-1.014.317-1.622 1.254-1.36 2.094s1.297 1.264 2.31.947zM9.706 21.375a.286.286 0 0 1-.11-.552.323.323 0 0 0 .19-.241.288.288 0 0 1 .235-.256c.068-.012.135-.032.211-.054.389-.114.871-.255 2.388.17 1.496-.837 1.513-2.406 1.513-2.474 0-.158.128-.287.286-.288h.001c.158 0 .286.127.287.285.001.083-.009 2.053-1.923 3.04a.287.287 0 0 1-.211.021c-1.446-.418-1.853-.299-2.18-.203l-.088.025a.885.885 0 0 1-.489.505.284.284 0 0 1-.11.022z" style="fill:var(--color6, #263238)"/><path fill="#407bff" d="M13.061 19.321c-.544-2.165-1.996-7.748 2.654-8.089 4.171-.306 5.316 5.246 5.595 7.17a22.48 22.48 0 0 1 .226 2.932 2.132 2.132 0 0 1-1.712 2.113c-2.273.462-4.423.527-5.872-.044a.95.95 0 0 1-.591-.973c.056-.622.057-1.691-.299-3.108z" style="fill:var(--color5, #407bff)"/><path d="M21.309 18.401c-.262-1.813-1.294-6.851-4.906-7.166a1.05 1.05 0 0 0-1.029.545c-.161.312-.156.691.085 1.065.796 1.235 2.695 5.502 2.408 7.827-.131 1.058-.794 1.903-.217 3.092a18.85 18.85 0 0 0 2.172-.317 2.131 2.131 0 0 0 1.713-2.113 22.5 22.5 0 0 0-.227-2.932z" opacity=".1" style="fill:var(--color7, #000)"/><path fill="#263238" d="M20.687 21.363a.029.029 0 0 1-.029-.028 22.455 22.455 0 0 0-.226-2.929c-.691-4.778-2.552-7.194-5.382-6.986-.015.002-.03-.011-.031-.027s.011-.03.027-.031c2.864-.211 4.747 2.222 5.443 7.035.138.957.215 1.945.227 2.936a.029.029 0 0 1-.028.029z" style="fill:var(--color6, #263238)"/><path fill="#263238" d="M20.643 24.097c1.014-.317 1.622-1.254 1.36-2.094s-1.297-1.264-2.311-.947-1.622 1.254-1.36 2.094c.263.84 1.297 1.264 2.311.947z" style="fill:var(--color6, #263238)"/><path fill="#407bff" d="M20.819 26.409a.288.288 0 0 1-.255-.155c-.257-.497-.58-1.08-1.162-1.711a.29.29 0 0 1-.065-.274c.216-.75.555-1.774.558-1.784a.287.287 0 1 1 .545.181 62.26 62.26 0 0 0-.507 1.61c.535.606.864 1.181 1.14 1.715a.287.287 0 0 1-.255.419z" style="fill:var(--color5, #407bff)"/><path fill="#263238" d="M20.216 17.658a.286.286 0 0 1-.134-.541c.055-.029 1.305-.713 1.656-2.353-.833-.348-2.331-1.135-2.659-1.531a.286.286 0 0 1-.062-.133 1.431 1.431 0 0 1 .064-.704l-.151-.292a.287.287 0 1 1 .51-.264l.217.42a.286.286 0 0 1-.011.283c-.069.111-.077.273-.072.378.369.333 1.859 1.123 2.587 1.393a.286.286 0 0 1 .184.313c-.325 2.097-1.929 2.961-1.997 2.997a.29.29 0 0 1-.133.033z" style="fill:var(--color6, #263238)"/><path fill="#263238" d="M19.3 13.194a.148.148 0 0 1-.078-.023.144.144 0 0 1-.042-.199c.01-.015.247-.373.608-.47.076-.021.155.025.176.101s-.025.155-.102.176c-.252.068-.44.347-.442.35a.144.144 0 0 1-.12.065zM21.297 26.639H19.07l1.18-.669.989.038.057.631z" style="fill:var(--color6, #263238)"/><path fill="#fff" d="M16.635 18.064c.842-.075 1.471-.75 1.404-1.508s-.804-1.312-1.647-1.238c-.842.075-1.471.75-1.404 1.508s.804 1.312 1.647 1.238z" style="fill:var(--color2, #fff)"/><path fill="#263238" d="M16.544 16.711c.116.406.029.788-.195.851s-.498-.214-.614-.621-.029-.788.195-.851c.223-.064.499.214.614.621z" style="fill:var(--color6, #263238)"/><path fill="#263238" d="M14.771 16.951c.967-.124 2.88-.67 3.196-.89-.249-.727-1.405-1.349-2.44-.999-.933.316-.756 1.889-.756 1.889zM14.959 17.418c1.2-.228 2.759-.611 3.205-.856-.028.783-.255 1.575-1.48 1.843-1.001.219-1.726-.987-1.726-.987z" style="fill:var(--color6, #263238)"/><path fill="#fff" d="M13.971 18.17c.434-.287.491-.965.128-1.514s-1.01-.761-1.443-.474c-.434.287-.491.965-.128 1.514s1.01.761 1.443.474z" style="fill:var(--color2, #fff)"/><path fill="#263238" d="M13.334 17.196c.073.343.01.629-.14.639s-.331-.26-.404-.603c-.073-.343-.01-.629.14-.639s.331.26.404.603z" style="fill:var(--color6, #263238)"/><path fill="#263238" d="M12.144 17.064c.648.077 1.936-.009 2.15-.126-.158-.621-.925-1.323-1.622-1.233-.628.081-.528 1.359-.528 1.359zM12.264 17.468c.806.037 1.854.016 2.156-.097-.028.615-.189 1.201-1.012 1.192-.672-.008-1.144-1.094-1.144-1.094zM16.902 14.675c-1.209 0-2.012-.597-2.052-.627a.287.287 0 0 1 .346-.458c.014.01.969.706 2.294.455a.288.288 0 0 1 .107.565 3.737 3.737 0 0 1-.695.066zM11.768 14.18a.287.287 0 0 1-.27-.384c.152-.424.405-.699.75-.818.626-.216 1.301.204 1.329.222a.287.287 0 0 1-.306.486c-.131-.081-.536-.269-.838-.164-.174.061-.303.214-.395.468a.287.287 0 0 1-.27.19zM14.031 19.024a.085.085 0 0 1-.083-.108.558.558 0 0 1 .292-.315c.329-.17.831-.135 1.492.104.045.016.068.066.052.11s-.066.068-.11.052c-.757-.274-1.151-.215-1.347-.117-.172.086-.211.208-.212.213a.087.087 0 0 1-.083.061z" style="fill:var(--color6, #263238)"/><path fill="#407bff" d="M11.32 18.708c-1.67.15-2.866.842-2.866.842.495-.093 2.263 2.095 2.717 3.782.839-.311 1.816-.523 2.859-.688-.632-1.739-1.787-3.71-2.71-3.936z" style="fill:var(--color5, #407bff)"/><path fill="#fff" d="M11.32 18.708c-1.67.15-2.866.842-2.866.842.495-.093 2.263 2.095 2.717 3.782.839-.311 1.816-.523 2.859-.688-.632-1.739-1.787-3.71-2.71-3.936z" opacity=".6" style="fill:var(--color2, #fff)"/><path fill="#407bff" d="M11.32 18.708c-1.093-.123-2.868.792-2.868.792-.314.201-.229.577-.058.735.165-.236 1.999-.851 2.688-.933-.343-.317-.024-.548.237-.594z" style="fill:var(--color5, #407bff)"/><path fill="#fff" d="M11.32 18.708c-1.093-.123-2.868.792-2.868.792-.314.201-.229.577-.058.735.165-.236 1.999-.851 2.688-.933-.343-.317-.024-.548.237-.594z" opacity=".2" style="fill:var(--color2, #fff)"/><path fill="#263238" d="M9.706 21.375a.288.288 0 0 1-.241-.13c-.208-.319-.078-.806-.05-.9a.287.287 0 1 1 .55.164c-.047.161-.056.366-.02.423a.286.286 0 0 1-.241.444z" style="fill:var(--color6, #263238)"/><path fill="#252529" d="M13.736 8.361v.727h-.349V7.831h.332v.222h.015c.028-.073.074-.131.14-.173s.145-.065.238-.065c.087 0 .163.019.228.057s.115.093.151.164c.036.07.054.154.054.252v.8h-.349V8.35c.001-.077-.019-.137-.059-.18s-.095-.065-.164-.065c-.047 0-.088.01-.124.03s-.063.05-.083.088a.293.293 0 0 0-.03.138zm1.652.752c-.127 0-.237-.027-.33-.081s-.163-.13-.214-.227a.737.737 0 0 1-.075-.34c0-.13.025-.243.075-.34s.121-.173.214-.227c.093-.055.203-.082.33-.082s.237.027.329.082c.093.054.164.13.214.227s.075.211.075.34c0 .129-.025.242-.075.34s-.122.173-.214.227a.64.64 0 0 1-.329.081zm.002-.27c.058 0 .106-.016.145-.049s.068-.079.088-.136c.02-.057.03-.123.03-.196s-.01-.138-.03-.196c-.02-.057-.049-.103-.088-.136s-.087-.05-.145-.05c-.058 0-.107.017-.147.05s-.069.079-.089.136c-.02.057-.029.122-.029.196s.01.138.029.196c.02.057.05.103.089.136s.089.049.147.049zm1.512-1.012v.262h-.757v-.262h.757zm-.585-.301h.349v1.172c0 .032.005.057.015.075s.023.03.041.037a.171.171 0 0 0 .062.011c.016 0 .033-.001.049-.004l.038-.007.055.259a.682.682 0 0 1-.189.033c-.084.003-.158-.008-.221-.034s-.112-.065-.146-.119a.37.37 0 0 1-.052-.205V7.531zm1.187.831v.727h-.349V7.412h.339v.641h.015c.028-.074.074-.132.137-.174s.143-.064.238-.064c.087 0 .163.019.228.057s.116.092.152.163c.037.07.055.155.054.253v.8h-.349V8.35c0-.077-.019-.138-.059-.181s-.094-.065-.165-.065c-.047 0-.089.01-.126.03s-.064.05-.085.088a.293.293 0 0 0-.031.138zm1.09.727V7.831h.349v1.257h-.349zm.175-1.419c-.052 0-.096-.017-.133-.052s-.055-.077-.055-.125.018-.089.055-.124.082-.052.133-.052c.052 0 .096.017.133.052a.165.165 0 0 1 0 .249.186.186 0 0 1-.133.052zm.801.692v.727h-.349V7.831h.332v.222h.015c.028-.073.074-.131.14-.173s.145-.065.238-.065c.087 0 .163.019.228.057s.115.093.151.164c.036.07.054.154.054.252v.8h-.349V8.35c0-.077-.019-.137-.059-.18s-.095-.065-.164-.065c-.047 0-.088.01-.124.03s-.063.05-.083.088a.293.293 0 0 0-.03.138zm1.651 1.224c-.113 0-.21-.016-.291-.047s-.144-.072-.191-.125a.386.386 0 0 1-.092-.178l.322-.043c.01.025.025.049.047.07s.049.039.084.052c.035.014.079.02.129.02.076 0 .138-.019.187-.056s.074-.098.074-.184v-.23h-.015c-.015.035-.038.068-.069.099s-.07.056-.118.076a.446.446 0 0 1-.172.029c-.094 0-.18-.022-.258-.065s-.138-.112-.184-.202a.776.776 0 0 1-.068-.345c0-.142.023-.261.07-.357s.108-.167.185-.214a.48.48 0 0 1 .431-.035.348.348 0 0 1 .115.088.494.494 0 0 1 .068.103h.013V7.83h.346v1.269c0 .107-.026.196-.079.268s-.125.126-.218.162a.848.848 0 0 1-.318.055zm.007-.777c.056 0 .104-.014.142-.042s.069-.069.09-.121c.021-.053.032-.116.032-.19s-.01-.137-.031-.191c-.021-.055-.051-.097-.09-.127s-.087-.045-.143-.045c-.057 0-.106.016-.145.047s-.069.073-.089.128c-.02.055-.03.117-.03.189s.01.135.03.188c.021.052.05.093.089.122s.088.043.145.043zm2.094-.977v.262h-.776v-.262h.776zm-.598 1.257V7.74c0-.091.018-.167.053-.227s.085-.105.147-.135a.482.482 0 0 1 .212-.045.821.821 0 0 1 .246.034l-.062.262-.051-.012a.308.308 0 0 0-.061-.006c-.051 0-.087.012-.107.036s-.03.056-.03.099v1.341h-.348zm1.333.025c-.127 0-.237-.027-.33-.081s-.163-.13-.214-.227a.737.737 0 0 1-.075-.34c0-.13.025-.243.075-.34s.121-.173.214-.227c.093-.055.203-.082.33-.082s.237.027.329.082c.093.054.164.13.214.227s.075.211.075.34c0 .129-.025.242-.075.34s-.122.173-.214.227a.64.64 0 0 1-.329.081zm.002-.27c.058 0 .106-.016.145-.049s.068-.079.088-.136c.02-.057.03-.123.03-.196s-.01-.138-.03-.196c-.02-.057-.049-.103-.088-.136s-.087-.05-.145-.05c-.058 0-.107.017-.147.05s-.069.079-.089.136c-.02.057-.029.122-.029.196s.01.138.029.196c.02.057.05.103.089.136s.089.049.147.049zm1.649-.29v-.722h.349v1.257h-.335V8.86h-.013c-.028.074-.076.133-.142.178s-.145.067-.24.067c-.084 0-.158-.019-.222-.057s-.114-.092-.15-.163a.576.576 0 0 1-.054-.253v-.8h.349v.738c.001.074.02.133.06.176s.092.065.158.065c.042 0 .081-.01.118-.029s.066-.049.088-.087a.27.27 0 0 0 .034-.142zm.976-.192v.727h-.349V7.831h.332v.222h.015c.028-.073.074-.131.14-.173s.145-.065.238-.065c.087 0 .163.019.228.057s.115.093.151.164c.036.07.054.154.054.252v.8h-.349V8.35c0-.077-.019-.137-.059-.18s-.095-.065-.164-.065c-.047 0-.088.01-.124.03s-.063.05-.083.088a.293.293 0 0 0-.03.138zm1.548.747a.472.472 0 0 1-.442-.292.84.84 0 0 1-.067-.355c0-.144.023-.264.07-.359s.108-.168.185-.215a.472.472 0 0 1 .43-.036.343.343 0 0 1 .114.088.45.45 0 0 1 .067.103h.011v-.63h.348v1.676h-.344v-.201h-.015c-.016.035-.04.07-.07.104s-.068.062-.115.084a.402.402 0 0 1-.172.034zm.111-.277c.056 0 .104-.015.142-.046s.069-.074.09-.13c.021-.056.032-.121.032-.196s-.01-.14-.031-.195-.051-.098-.09-.128a.228.228 0 0 0-.143-.045c-.057 0-.106.016-.145.047s-.069.074-.089.129c-.02.055-.03.119-.03.191s.01.138.03.194c.021.056.05.099.089.131s.088.047.145.047zM18.773 4.026c0 .183-.035.338-.104.466s-.163.226-.281.294a.794.794 0 0 1-.399.101c-.149 0-.282-.034-.401-.101s-.212-.166-.281-.294-.103-.283-.103-.466c0-.183.034-.338.103-.466s.162-.226.281-.293a.789.789 0 0 1 .401-.101c.148 0 .281.034.399.101s.213.165.281.293a.972.972 0 0 1 .104.466zm-.359 0c0-.118-.018-.218-.053-.299s-.084-.143-.148-.185-.139-.063-.224-.063c-.086 0-.16.021-.224.063s-.113.104-.149.185c-.035.081-.052.181-.052.299s.017.218.052.299c.035.081.085.143.149.185s.139.063.224.063.16-.021.224-.063c.064-.042.113-.104.148-.185s.053-.181.053-.299zm2.162 0c0 .183-.035.338-.104.466s-.163.226-.281.294a.794.794 0 0 1-.399.101c-.149 0-.282-.034-.401-.101s-.212-.166-.281-.294-.103-.283-.103-.466c0-.183.034-.338.103-.466s.162-.226.281-.293a.789.789 0 0 1 .401-.101c.148 0 .281.034.399.101s.213.165.281.293a.972.972 0 0 1 .104.466zm-.36 0c0-.118-.018-.218-.053-.299s-.084-.143-.148-.185-.139-.063-.224-.063c-.086 0-.16.021-.224.063s-.113.104-.149.185c-.035.081-.052.181-.052.299s.017.218.052.299c.035.081.085.143.149.185s.139.063.224.063c.086 0 .16-.021.224-.063s.113-.104.148-.185a.755.755 0 0 0 .053-.299zm2.162 0c0 .183-.035.338-.104.466s-.163.226-.281.294a.794.794 0 0 1-.399.101c-.149 0-.283-.034-.401-.101s-.212-.166-.281-.294a.97.97 0 0 1-.103-.466.97.97 0 0 1 .103-.466c.069-.128.162-.226.281-.293s.252-.101.401-.101c.148 0 .281.034.399.101s.213.165.281.293a.972.972 0 0 1 .104.466zm-.359 0c0-.118-.018-.218-.053-.299s-.084-.143-.148-.185a.4.4 0 0 0-.224-.063.4.4 0 0 0-.224.063c-.064.042-.113.104-.149.185s-.052.181-.052.299.017.218.052.299c.035.081.085.143.149.185s.139.063.224.063c.086 0 .16-.021.224-.063s.113-.104.148-.185a.755.755 0 0 0 .053-.299zm.621.838V3.188h.661c.127 0 .235.024.325.073s.158.115.205.2c.047.085.071.183.071.295s-.024.209-.072.295c-.048.085-.118.151-.209.199s-.2.071-.329.071h-.421v-.284h.364c.068 0 .124-.012.169-.035s.078-.057.1-.099c.022-.043.034-.091.034-.146s-.011-.104-.034-.146c-.022-.042-.055-.074-.1-.097s-.102-.035-.17-.035h-.239v1.386h-.354zm2.401-1.194c-.007-.066-.035-.117-.084-.154s-.117-.055-.202-.055c-.058 0-.107.008-.146.025s-.07.038-.092.066a.158.158 0 0 0-.031.097c-.001.03.005.056.019.079s.034.042.058.058c.025.016.053.03.085.042s.067.021.103.029l.151.036c.073.016.14.038.201.065s.114.061.159.101a.424.424 0 0 1 .142.327.46.46 0 0 1-.302.441.893.893 0 0 1-.349.061c-.135 0-.253-.021-.353-.062s-.178-.103-.234-.184a.55.55 0 0 1-.088-.304h.343c.004.056.02.103.048.141s.067.065.115.084a.448.448 0 0 0 .164.028c.06 0 .112-.009.156-.026s.079-.042.104-.073a.166.166 0 0 0 .037-.107c0-.038-.011-.069-.034-.095s-.054-.047-.096-.065a1.02 1.02 0 0 0-.155-.049l-.182-.046c-.141-.034-.253-.088-.335-.161s-.122-.172-.122-.295c0-.101.026-.19.081-.266s.131-.135.227-.178.205-.064.327-.064c.124 0 .233.021.326.064s.166.102.218.178a.464.464 0 0 1 .08.263h-.34zm1.011-.482-.032 1.173h-.299l-.033-1.173h.364zm-.182 1.697c-.054 0-.1-.019-.139-.057s-.058-.085-.057-.139c0-.053.019-.099.057-.137s.085-.057.139-.057c.052 0 .097.019.137.057a.186.186 0 0 1 .031.236.219.219 0 0 1-.071.071.19.19 0 0 1-.097.026z" style="fill:var(--color8, #252529)"/></symbol></defs></svg>