<svg aria-hidden="true" style="position: absolute; width: 0; height: 0; overflow: hidden;" version="1.1" xmlns="http://www.w3.org/2000/svg" xmlns:xlink="http://www.w3.org/1999/xlink">
<defs>
<symbol id="burger-menu" viewBox="0 0 32 32">
<path stroke-linejoin="round" stroke-linecap="round" stroke-miterlimit="4" stroke-width="2" d="M28 13.333h-24"></path>
<path stroke-linejoin="round" stroke-linecap="round" stroke-miterlimit="4" stroke-width="2" d="M28 8h-24"></path>
<path stroke-linejoin="round" stroke-linecap="round" stroke-miterlimit="4" stroke-width="2" d="M28 18.667h-24"></path>
<path stroke-linejoin="round" stroke-linecap="round" stroke-miterlimit="4" stroke-width="2" d="M28 24h-24"></path>
</symbol>
<symbol id="arrow-right" viewBox="0 0 32 32">
<path stroke-linejoin="round" stroke-linecap="round" stroke-miterlimit="4" stroke-width="2.7733" d="M16 29.867l13.867-13.867M29.867 16l-13.867-13.867M29.867 16h-27.733"></path>
</symbol>
<symbol id="stroke" viewBox="0 0 32 32">
<path d="M14.254 13.505l0.363 0.372-4.466-12.797 5.321 12.466 0.018-0.52 0.441-13.027 0.441 13.026 0.018 0.52 5.321-12.466-4.466 12.797 9.465-9.702-8.787 10.32 12.331-5.628-11.922 6.449 13.531-0.793-13.446 1.707 12.904 4.148-13.155-3.266 10.534 8.53-11.087-7.798 6.741 11.759-7.521-11.276 2.038 13.4-2.94-13.232-2.94 13.232 2.038-13.4-7.521 11.276 6.741-11.759-11.087 7.798 10.534-8.53-13.155 3.266 12.904-4.148-13.446-1.707 13.531 0.793-11.922-6.449 12.331 5.628-8.787-10.32 9.102 9.33zM15.185 14.071l-0.646 0.4-0.458 0.607-0.208 0.731 0.070 0.757 0.339 0.68 0.562 0.512 0.709 0.275h0.76l0.709-0.275 0.562-0.512 0.339-0.68 0.070-0.757-0.208-0.731-0.458-0.607-0.646-0.4-0.747-0.14-0.747 0.14z"></path>
</symbol>
<symbol id="star" viewBox="0 0 34 32">
<path d="M15.24 1.561c0.504-1.552 2.699-1.552 3.204 0l2.558 7.872c0.225 0.694 0.872 1.164 1.602 1.164h8.277c1.632 0 2.31 2.088 0.99 3.047l-6.696 4.865c-0.59 0.429-0.837 1.189-0.612 1.883l2.558 7.872c0.504 1.552-1.272 2.842-2.592 1.883l-6.696-4.865c-0.59-0.429-1.39-0.429-1.98 0l-6.696 4.865c-1.32 0.959-3.096-0.331-2.592-1.883l2.558-7.872c0.225-0.694-0.022-1.454-0.612-1.883l-6.696-4.865c-1.32-0.959-0.642-3.047 0.99-3.047h8.277c0.73 0 1.376-0.47 1.602-1.164l2.558-7.872z"></path>
</symbol>
<symbol id="arrow-top" viewBox="0 0 32 32">
<path fill="#f4f4f4" style="fill: var(--color1, #f4f4f4); stroke: var(--color1, #f4f4f4)" stroke="#f4f4f4" stroke-linejoin="miter" stroke-linecap="butt" stroke-miterlimit="4" stroke-width="0.48" d="M17.036 7.986v16.338h-1.738v-16.338l-8.169 8.169-1.229-1.229 10.267-10.267 10.267 10.267-1.229 1.229-8.169-8.169z"></path>
</symbol>
<symbol id="facebook" viewBox="0 0 32 32">
<path d="M19.52 4.64c0.24 0 0.48 0 0.96 0v3.6c-0.24 0-0.72 0-1.2 0s-0.96 0-1.2 0.24c-0.24 0.24-0.24 0.48-0.24 1.040 0 0.48 0 0.8 0 1.28h2.64v3.040h-2.64v13.2h-4.080v-13.28h-2.16v-3.040h2.16v-1.040c0-1.76 0.24-3.040 0.72-3.6 0.72-1.040 2.16-1.52 4.32-1.52 0.24 0.080 0.48 0.080 0.72 0.080z"></path>
</symbol>
<symbol id="fluent-food" viewBox="0 0 32 32">
<path d="M7.36 9.143h-1.92c-0.532 0-0.96 0.459-0.96 1.029v4.457h-0.96c-0.176 0-0.32 0.154-0.32 0.343v2.057c0 0.188 0.144 0.343 0.32 0.343h0.96v4.457c0 0.57 0.428 1.028 0.96 1.028h1.92c0.532 0 0.96-0.459 0.96-1.028v-11.657c0-0.57-0.428-1.029-0.96-1.029zM28.48 14.629h-0.96v-4.457c0-0.57-0.428-1.029-0.96-1.029h-1.92c-0.532 0-0.96 0.459-0.96 1.029v11.657c0 0.57 0.428 1.028 0.96 1.028h1.92c0.532 0 0.96-0.459 0.96-1.028v-4.457h0.96c0.176 0 0.32-0.154 0.32-0.343v-2.057c0-0.189-0.144-0.343-0.32-0.343zM21.44 6.4h-1.92c-0.532 0-0.96 0.459-0.96 1.029v7.2h-5.12v-7.2c0-0.57-0.428-1.029-0.96-1.029h-1.92c-0.532 0-0.96 0.459-0.96 1.029v17.143c0 0.57 0.428 1.029 0.96 1.029h1.92c0.532 0 0.96-0.459 0.96-1.029v-7.2h5.12v7.2c0 0.57 0.428 1.029 0.96 1.029h1.92c0.532 0 0.96-0.459 0.96-1.029v-17.143c0-0.57-0.428-1.029-0.96-1.029z"></path>
</symbol>
<symbol id="heart" viewBox="0 0 32 32">
<path stroke-linejoin="round" stroke-linecap="round" stroke-miterlimit="4" stroke-width="2.4" d="M27.787 6.147c-0.681-0.681-1.49-1.222-2.38-1.591s-1.844-0.559-2.807-0.559-1.917 0.19-2.807 0.559c-0.89 0.369-1.698 0.909-2.38 1.591l-1.413 1.413-1.413-1.413c-1.376-1.376-3.241-2.148-5.187-2.148s-3.811 0.773-5.187 2.148c-1.376 1.376-2.148 3.241-2.148 5.187s0.773 3.811 2.148 5.187l11.787 11.787 11.787-11.787c0.681-0.681 1.222-1.49 1.591-2.38s0.559-1.844 0.559-2.807-0.19-1.917-0.559-2.807c-0.369-0.89-0.909-1.699-1.591-2.38z"></path>
</symbol>
<symbol id="instagram" viewBox="0 0 32 32">
<path d="M28.718 10.756c-0.016-1.074-0.215-2.14-0.596-3.145-0.667-1.716-2.024-3.073-3.743-3.737-0.994-0.373-2.044-0.573-3.108-0.596-1.368-0.061-1.801-0.078-5.273-0.078s-3.917 0-5.274 0.078c-1.062 0.023-2.112 0.223-3.106 0.596-1.719 0.664-3.078 2.021-3.743 3.737-0.374 0.992-0.576 2.041-0.596 3.101-0.061 1.367-0.080 1.8-0.080 5.265s0 3.909 0.080 5.265c0.021 1.062 0.222 2.109 0.596 3.104 0.667 1.714 2.024 3.071 3.744 3.735 0.989 0.386 2.040 0.605 3.106 0.639 1.369 0.061 1.803 0.080 5.274 0.080s3.916 0 5.274-0.080c1.062-0.021 2.113-0.221 3.108-0.595 1.719-0.666 3.076-2.022 3.743-3.737 0.374-0.994 0.574-2.041 0.596-3.104 0.061-1.365 0.080-1.798 0.080-5.265-0.003-3.466-0.003-3.906-0.082-5.264zM15.99 22.531c-3.631 0-6.572-2.936-6.572-6.561s2.941-6.561 6.572-6.561c3.628 0 6.572 2.936 6.572 6.561s-2.944 6.561-6.572 6.561zM22.824 10.696c-0.849 0-1.532-0.684-1.532-1.53s0.684-1.53 1.532-1.53c0.846 0 1.531 0.684 1.531 1.53s-0.685 1.53-1.531 1.53z"></path>
<path d="M15.992 19.976c2.211 0 4.004-1.793 4.004-4.004s-1.793-4.004-4.004-4.004c-2.211 0-4.004 1.793-4.004 4.004s1.793 4.004 4.004 4.004z"></path>
</symbol>
<symbol id="commas" viewBox="0 0 32 32">
<path fill="#f4f4f4" style="fill: var(--color1, #f4f4f4)" d="M8.201 17.469c1.546-0.613 2.785-0.452 3.719 0.481s1.21 2.421 0.831 4.463c-0.292 1.517-0.933 2.683-1.925 3.5-0.963 0.787-2.085 1.181-3.369 1.181-1.75 0-2.96-0.671-3.631-2.013-0.671-1.371-0.802-3.208-0.394-5.512 0.233-1.254 0.613-2.523 1.137-3.806s1.225-2.596 2.1-3.938c0.875-1.342 2.013-2.508 3.413-3.5s2.946-1.633 4.637-1.925l-0.437 4.638c-1.429 0.292-2.698 1.035-3.806 2.231-1.108 1.167-1.867 2.567-2.275 4.2zM21.37 17.469c1.546-0.613 2.785-0.452 3.719 0.481s1.21 2.421 0.831 4.463c-0.292 1.517-0.933 2.683-1.925 3.5-0.963 0.787-2.085 1.181-3.369 1.181-1.75 0-2.96-0.671-3.631-2.013-0.671-1.371-0.802-3.208-0.394-5.512 0.233-1.254 0.613-2.523 1.137-3.806s1.225-2.596 2.1-3.938c0.875-1.342 2.013-2.508 3.413-3.5s2.946-1.633 4.637-1.925l-0.437 4.638c-1.429 0.292-2.698 1.035-3.806 2.231-1.108 1.167-1.867 2.567-2.275 4.2z"></path>
</symbol>
<symbol id="run" viewBox="0 0 32 32">
<path d="M29.647 9.451c-0.419-0.501-1.166-0.567-1.667-0.149l-3.282 2.757-1.509-3.739c-0.054-0.14-0.135-0.258-0.229-0.362-0.308-0.686-0.844-1.275-1.582-1.617-0.32-0.146-0.652-0.224-0.982-0.262-0.073-0.038-0.139-0.088-0.222-0.114l-5.775-1.61c-0.324-0.088-0.65-0.031-0.917 0.125-0.317 0.107-0.589 0.338-0.719 0.672l-2.175 5.592c-0.236 0.608 0.066 1.294 0.676 1.534 0.607 0.236 1.294-0.068 1.532-0.678l1.837-4.722 2.63 0.731c-0.064 0.104-0.133 0.201-0.185 0.312l-3.372 7.309c-0.049 0.107-0.075 0.217-0.109 0.328l-4.098 6.871-6.859 2.294c-0.776 0.58-0.941 1.674-0.367 2.45 0.577 0.778 1.674 0.943 2.448 0.369l7.018-2.417c0.215-0.156 0.371-0.36 0.489-0.58 0.088-0.094 0.189-0.168 0.256-0.284l2.443-4.096 4.337 3.696-4.641 5.23c-0.639 0.721-0.575 1.832 0.149 2.469 0.723 0.643 1.83 0.575 2.473-0.149l5.791-6.524c0.18-0.201 0.288-0.433 0.36-0.676 0.043-0.132 0.043-0.269 0.054-0.406 0-0.069 0.026-0.132 0.021-0.196-0.016-0.478-0.21-0.943-0.601-1.274l-3.991-3.403c0.288-0.274 0.532-0.6 0.709-0.983l2.585-5.599 0.828 2.206c0.035 0.196 0.1 0.388 0.239 0.549 0.125 0.149 0.284 0.248 0.454 0.317 0.017 0.009 0.038 0.010 0.059 0.016 0.107 0.038 0.216 0.075 0.329 0.080 0.133 0.012 0.269-0.005 0.405-0.043 0.004-0.002 0.005-0.002 0.005-0.002 0.036-0.009 0.073-0.002 0.109-0.017 0.192-0.073 0.34-0.196 0.466-0.34l4.71-3.998c0.501-0.421 0.289-1.166-0.132-1.667z"></path>
<path d="M23.689 6.602c1.823 0 3.301-1.478 3.301-3.301s-1.478-3.301-3.301-3.301c-1.823 0-3.301 1.478-3.301 3.301s1.478 3.301 3.301 3.301z"></path>
</symbol>
<symbol id="search" viewBox="0 0 32 32">
<path stroke-linejoin="round" stroke-linecap="round" stroke-miterlimit="4" stroke-width="2.6667" d="M14.667 25.333c5.891 0 10.667-4.776 10.667-10.667s-4.776-10.667-10.667-10.667c-5.891 0-10.667 4.776-10.667 10.667s4.776 10.667 10.667 10.667z"></path>
<path stroke-linejoin="round" stroke-linecap="round" stroke-miterlimit="4" stroke-width="2.6667" d="M28 28l-5.8-5.8"></path>
</symbol>
<symbol id="trash" viewBox="0 0 32 32">
<path stroke-linejoin="round" stroke-linecap="round" stroke-miterlimit="4" stroke-width="2.4" d="M21.333 8v-1.067c0-1.493 0-2.24-0.291-2.811-0.256-0.502-0.664-0.91-1.165-1.165-0.57-0.291-1.317-0.291-2.811-0.291h-2.133c-1.493 0-2.24 0-2.811 0.291-0.502 0.256-0.91 0.664-1.165 1.165-0.291 0.57-0.291 1.317-0.291 2.811v1.067M13.333 15.333v6.667M18.667 15.333v6.667M4 8h24M25.333 8v14.933c0 2.24 0 3.36-0.436 4.216-0.383 0.753-0.995 1.364-1.748 1.748-0.856 0.436-1.976 0.436-4.216 0.436h-5.867c-2.24 0-3.36 0-4.216-0.436-0.753-0.384-1.365-0.995-1.748-1.748-0.436-0.856-0.436-1.976-0.436-4.216v-14.933"></path>
</symbol>
<symbol id="close" viewBox="0 0 32 32">
<path stroke-linejoin="round" stroke-linecap="round" stroke-miterlimit="4" stroke-width="2.6667" d="M22.667 9.333l-13.333 13.333M9.333 9.333l13.333 13.333"></path>
</symbol>
<symbol id="youtube" viewBox="0 0 32 32">
<path d="M24.24 6c-1.36-0.080-4.16-0.16-8.4-0.16h-0.56c-4.080 0-6.8 0.080-8.16 0.24-1.84 0.16-3.12 0.64-3.84 1.28-0.64 0.56-1.12 1.6-1.28 2.96-0.080 0.88-0.16 2.72-0.16 5.52v0.4c0 2.64 0.080 4.48 0.24 5.36 0.24 1.28 0.64 2.24 1.44 2.8 0.8 0.64 2.16 1.040 4.080 1.2 1.36 0.080 4.16 0.16 8.4 0.16h0.56c4.080 0 6.8-0.080 8.16-0.24 1.84-0.16 3.12-0.64 3.84-1.28 0.64-0.56 1.12-1.6 1.28-2.96 0.080-0.88 0.16-2.72 0.16-5.52v-0.4c0-2.64-0.080-4.48-0.24-5.36-0.24-1.28-0.64-2.24-1.44-2.8-0.8-0.64-2.16-1.040-4.080-1.2zM21.12 15.84l-8.8 5.28v-10.56l8.8 5.28z"></path>
</symbol>

<symbol id="logo" viewBox="0 0 302 32">
<path d="M11.383 18.926l-11.383-18.926h6.811l7.634 13.12h0.091l7.634-13.12h6.811l-11.383 18.926v13.074h-6.217v-13.074z"></path>
<path d="M28.961 26.743v-21.486l5.257-5.257h16.457l5.257 5.257v21.486l-5.257 5.257h-16.457l-5.257-5.257zM47.384 26.697l2.331-2.331v-16.731l-2.331-2.331h-9.874l-2.331 2.331v16.731l2.331 2.331h9.874z"></path>
<path d="M60.284 26.514v-26.514h6.217v24.366l2.331 2.331h8.96l2.331-2.331v-24.366h6.217v26.514l-5.486 5.486h-15.086l-5.486-5.486z"></path>
<path d="M116.293 21.394v10.606h-6.217v-9.189l-2.743-3.063h-9.966v12.251h-6.217v-32h20.069l4.891 4.937v9.691l-3.109 3.154 3.291 3.611zM97.367 14.629h11.017l1.6-1.6v-6.217l-1.6-1.6h-11.017v9.417z"></path>
<path d="M132.168 0h23.131v5.257h-16.914v8.091h15.589v5.166h-15.589v8.229h16.914v5.257h-23.131v-32z"></path>
<path d="M158.748 0h5.577l14.263 21.714h0.091v-21.714h5.989v32h-5.577l-14.263-21.669h-0.091v21.669h-5.989v-32z"></path>
<path d="M189.48 0h23.131v5.257h-16.914v8.091h15.589v5.166h-15.589v8.229h16.914v5.257h-23.131v-32z"></path>
<path d="M241.205 21.394v10.606h-6.217v-9.189l-2.743-3.063h-9.967v12.251h-6.217v-32h20.070l4.891 4.937v9.691l-3.109 3.154 3.291 3.611zM222.278 14.629h11.018l1.6-1.6v-6.217l-1.6-1.6h-11.018v9.417z"></path>
<path d="M245.31 26.743v-21.486l5.257-5.257h15.909l5.166 5.166v4.891h-6.217v-2.606l-2.149-2.149h-9.417l-2.331 2.331v16.731l2.331 2.331h9.509l2.24-2.24v-4.983h-6.857v-5.303h12.891v12.571l-5.257 5.257h-15.817l-5.257-5.257z"></path>
<path d="M283.035 18.926l-11.383-18.926h6.811l7.634 13.12h0.091l7.634-13.12h6.811l-11.383 18.926v13.074h-6.217v-13.074z"></path>
</symbol>

<symbol id="icon-sun" viewBox="0 0 32 32">
<path d="M14.254 13.505l0.363 0.372-4.466-12.797 5.321 12.466 0.018-0.52 0.441-13.027 0.441 13.026 0.018 0.52 5.321-12.466-4.466 12.797 9.465-9.702-8.787 10.32 12.331-5.628-11.922 6.449 13.531-0.793-13.446 1.707 12.904 4.148-13.155-3.266 10.534 8.53-11.087-7.798 6.741 11.759-7.521-11.276 2.038 13.4-2.94-13.232-2.94 13.232 2.038-13.4-7.521 11.276 6.741-11.759-11.087 7.798 10.534-8.53-13.155 3.266 12.904-4.148-13.446-1.707 13.531 0.793-11.922-6.449 12.331 5.628-8.787-10.32 9.102 9.33zM15.185 14.071l-0.646 0.4-0.458 0.607-0.208 0.731 0.070 0.757 0.339 0.68 0.562 0.512 0.709 0.275h0.76l0.709-0.275 0.562-0.512 0.339-0.68 0.070-0.757-0.208-0.731-0.458-0.607-0.646-0.4-0.747-0.14-0.747 0.14z"></path>
</symbol>

<symbol id="BadRequast" viewBox="0 0 32 32">
<path fill="#ebebeb" style="fill: var(--color1, #ebebeb)" d="M32 24.473v0z"></path>
<path fill="#ebebeb" style="fill: var(--color1, #ebebeb)" d="M28.794 25.504h-2.12v0.016h2.12v-0.016z"></path>
<path fill="#ebebeb" style="fill: var(--color1, #ebebeb)" d="M17.486 25.303h-0.825v0.016h0.825v-0.016z"></path>
<path fill="#ebebeb" style="fill: var(--color1, #ebebeb)" d="M22.379 25.371h-1.737v0.016h1.737v-0.016z"></path>
<path fill="#ebebeb" style="fill: var(--color1, #ebebeb)" d="M26.61 24.909h-3.591v0.016h3.591v-0.016z"></path>
<path fill="#ebebeb" style="fill: var(--color1, #ebebeb)" d="M5.055 25.65h-1.698v0.016h1.698v-0.016z"></path>
<path fill="#ebebeb" style="fill: var(--color1, #ebebeb)" d="M7.097 25.65h-1.472v0.016h1.472v-0.016z"></path>
<path fill="#ebebeb" style="fill: var(--color1, #ebebeb)" d="M12.276 25.295h-3.892v0.016h3.892v-0.016z"></path>
<path fill="#ebebeb" style="fill: var(--color1, #ebebeb)" d="M15.169 21.619h-12.358c-0.201 0-0.365-0.164-0.365-0.365v-17.372c0-0.201 0.164-0.365 0.365-0.365h12.358c0.201 0 0.365 0.164 0.365 0.365v17.372c0 0.201-0.164 0.365-0.365 0.365zM2.811 3.533c-0.193 0-0.349 0.157-0.349 0.349v17.372c0 0.193 0.157 0.349 0.349 0.349h12.358c0.193 0 0.349-0.157 0.349-0.349v-17.372c0-0.193-0.157-0.349-0.349-0.349l-12.358 0z"></path>
<path fill="#ebebeb" style="fill: var(--color1, #ebebeb)" d="M29.012 21.619h-12.358c-0.201 0-0.365-0.164-0.365-0.365v-17.372c0-0.201 0.164-0.365 0.365-0.365h12.358c0.201 0 0.365 0.164 0.365 0.365v17.372c0 0.201-0.164 0.365-0.365 0.365zM16.654 3.533c-0.193 0-0.349 0.157-0.349 0.349v17.372c0 0.193 0.157 0.349 0.349 0.349h12.358c0.193 0 0.349-0.157 0.349-0.349v-17.372c0-0.193-0.157-0.349-0.349-0.349l-12.358 0z"></path>
<path fill="#ebebeb" style="fill: var(--color1, #ebebeb)" d="M29.892 12.427c0.208-0.722 0.17-1.457-0.063-2.115 0.183-0.261 0.327-0.556 0.42-0.88 0.429-1.486-0.353-3.034-1.762-3.591-0.272-1.947-1.654-3.648-3.664-4.228-1.59-0.458-3.22-0.114-4.459 0.793-0.31-0.325-0.707-0.574-1.17-0.708-1.394-0.402-2.85 0.402-3.252 1.796-0.067 0.233-0.1 0.468-0.103 0.699-1.403 0.283-2.604 1.317-3.028 2.787-0.381 1.321-0.044 2.678 0.78 3.655-0.107 0.192-0.194 0.399-0.258 0.62-0.456 1.582 0.456 3.235 2.039 3.692 0.522 0.151 1.051 0.151 1.543 0.029 0.582 0.802 1.424 1.424 2.45 1.72 1.32 0.381 2.671 0.144 3.747-0.539 0.481 1.12 0.877 2.799 0.025 4.446 3.094-0.303 5.328-3.271 4.873-5.99 0.883-0.406 1.591-1.179 1.882-2.186z"></path>
<path fill="#fff" style="fill: var(--color2, #fff)" d="M23.956 19.989c-0.017 0-0.033-0.007-0.045-0.019-0.017-0.016-0.023-0.041-0.016-0.063 0.436-1.518 0.039-2.973-0.371-3.927l-0.208-0.483-0.444 0.282c-0.67 0.425-1.441 0.65-2.229 0.65-0.388 0-0.776-0.055-1.153-0.164-0.898-0.259-1.663-0.796-2.212-1.553l-0.177-0.245-0.293 0.073c-0.43 0.107-0.883 0.098-1.31-0.025-0.65-0.188-1.189-0.617-1.516-1.21s-0.404-1.277-0.217-1.927c0.052-0.182 0.126-0.359 0.219-0.527l0.149-0.27-0.199-0.236c-0.759-0.9-1.018-2.112-0.692-3.242 0.365-1.264 1.394-2.211 2.686-2.471l0.355-0.072 0.004-0.363c0.002-0.197 0.031-0.392 0.085-0.58 0.268-0.928 1.128-1.576 2.092-1.576 0.204 0 0.407 0.029 0.605 0.086 0.369 0.107 0.705 0.309 0.97 0.587l0.271 0.284 0.317-0.232c0.801-0.586 1.785-0.909 2.77-0.909 0.438 0 0.875 0.062 1.3 0.185 1.776 0.512 3.089 2.027 3.345 3.859l0.036 0.259 0.243 0.096c1.216 0.481 1.86 1.792 1.497 3.050-0.077 0.267-0.197 0.519-0.357 0.747l-0.132 0.189 0.077 0.217c0.212 0.596 0.231 1.233 0.055 1.841-0.243 0.842-0.84 1.536-1.639 1.903l-0.311 0.143 0.057 0.338c0.194 1.16-0.155 2.428-0.959 3.477-0.669 0.874-1.605 1.521-2.635 1.822-0.006 0.002-0.012 0.003-0.018 0.003zM23.345 15.34c0.006 0 0.013 0.001 0.019 0.003 0.018 0.005 0.032 0.019 0.040 0.036l0.237 0.552c0.408 0.949 0.803 2.387 0.408 3.9 0.96-0.306 1.83-0.922 2.459-1.744 0.782-1.021 1.123-2.253 0.934-3.378l-0.065-0.386c-0.005-0.028 0.010-0.057 0.036-0.069l0.356-0.164c0.765-0.352 1.336-1.016 1.569-1.823 0.168-0.582 0.15-1.192-0.053-1.763l-0.088-0.248c-0.007-0.019-0.004-0.041 0.008-0.058l0.151-0.216c0.151-0.217 0.265-0.456 0.339-0.709 0.345-1.194-0.266-2.439-1.421-2.895l-0.278-0.11c-0.021-0.008-0.037-0.028-0.040-0.051l-0.041-0.296c-0.249-1.782-1.526-3.256-3.253-3.754-0.413-0.119-0.839-0.18-1.265-0.18-0.958 0-1.915 0.314-2.695 0.884l-0.362 0.265c-0.026 0.019-0.062 0.016-0.084-0.007l-0.31-0.325c-0.249-0.261-0.565-0.452-0.913-0.552-0.186-0.054-0.378-0.081-0.57-0.081-0.908 0-1.717 0.61-1.969 1.483-0.051 0.177-0.078 0.361-0.080 0.546l-0.005 0.414c-0 0.030-0.022 0.056-0.051 0.062l-0.406 0.082c-1.245 0.251-2.237 1.163-2.588 2.381-0.314 1.088-0.064 2.256 0.667 3.124l0.227 0.27c0.017 0.020 0.020 0.049 0.007 0.072l-0.171 0.308c-0.088 0.159-0.158 0.328-0.208 0.5-0.178 0.617-0.105 1.267 0.206 1.83s0.822 0.971 1.439 1.149c0.406 0.117 0.836 0.125 1.244 0.024l0.335-0.083c0.025-0.006 0.052 0.003 0.067 0.025l0.203 0.28c0.532 0.733 1.273 1.254 2.144 1.505 0.366 0.105 0.742 0.159 1.118 0.159 0.764 0 1.511-0.218 2.16-0.63l0.507-0.322c0.010-0.007 0.022-0.010 0.034-0.010z"></path>
<path fill="#fff" style="fill: var(--color2, #fff)" d="M19.468 9.676l-1.715-0.267 0.027-0.172c0.045-0.292 0.115-0.524 0.21-0.696s0.219-0.323 0.373-0.453c0.154-0.13 0.49-0.349 1.006-0.657 0.275-0.161 0.425-0.324 0.451-0.489s-0.003-0.302-0.087-0.409c-0.084-0.107-0.225-0.176-0.423-0.207-0.214-0.033-0.402 0.010-0.563 0.13s-0.29 0.353-0.384 0.699l-1.718-0.489c0.16-0.635 0.475-1.117 0.944-1.446s1.125-0.428 1.967-0.297c0.656 0.102 1.164 0.322 1.525 0.658 0.49 0.455 0.687 0.992 0.591 1.609-0.040 0.256-0.149 0.492-0.328 0.707s-0.513 0.461-1.002 0.736c-0.341 0.194-0.563 0.357-0.666 0.491s-0.172 0.318-0.208 0.552zM17.623 9.856l1.837 0.286-0.252 1.621-1.837-0.286 0.252-1.621z"></path>
<path fill="#fff" style="fill: var(--color2, #fff)" d="M24.23 13.147l-0.952-0.772 0.077-0.095c0.131-0.162 0.256-0.279 0.375-0.35s0.248-0.119 0.389-0.144c0.14-0.025 0.423-0.039 0.847-0.044 0.225-0.001 0.374-0.047 0.449-0.139s0.105-0.185 0.092-0.28c-0.013-0.095-0.075-0.187-0.185-0.276-0.119-0.096-0.249-0.136-0.39-0.121s-0.302 0.112-0.482 0.29l-0.875-0.908c0.323-0.331 0.686-0.513 1.089-0.548s0.838 0.137 1.306 0.516c0.364 0.295 0.597 0.609 0.697 0.943 0.138 0.452 0.068 0.849-0.21 1.192-0.115 0.142-0.265 0.247-0.451 0.316s-0.476 0.1-0.873 0.094c-0.277-0.003-0.471 0.018-0.58 0.063s-0.218 0.133-0.323 0.263zM23.040 12.602l1.020 0.826-0.729 0.9-1.020-0.826 0.729-0.9z"></path>
<path fill="#fff" style="fill: var(--color2, #fff)" d="M24.88 6.963l-0.412-0.563 0.056-0.041c0.096-0.070 0.181-0.116 0.257-0.138s0.154-0.030 0.235-0.023 0.238 0.040 0.473 0.099c0.124 0.032 0.213 0.028 0.267-0.011s0.085-0.087 0.091-0.141-0.014-0.114-0.062-0.179c-0.051-0.070-0.117-0.111-0.197-0.123s-0.183 0.018-0.308 0.090l-0.35-0.627c0.226-0.135 0.452-0.183 0.679-0.143s0.442 0.197 0.644 0.474c0.158 0.215 0.24 0.422 0.247 0.62 0.010 0.269-0.086 0.477-0.288 0.625-0.084 0.061-0.182 0.098-0.294 0.108s-0.277-0.014-0.494-0.075c-0.152-0.042-0.262-0.058-0.329-0.049s-0.139 0.042-0.216 0.098zM24.304 6.491l0.442 0.603-0.532 0.389-0.442-0.603 0.532-0.389z"></path>
<path fill="#e6e6e6" style="fill: var(--color3, #e6e6e6)" d="M8.213 14.309c-0.529 0-1.062-0.145-1.533-0.426-0.649-0.387-1.108-0.987-1.264-1.65-0.527-0.038-1.013-0.297-1.337-0.714-0.235-0.302-0.369-0.662-0.389-1.043-0.139-0.095-0.262-0.21-0.365-0.343-0.505-0.65-0.441-1.562 0.144-2.133-0.244-1.040 0.141-2.132 0.985-2.788 0.662-0.515 1.506-0.696 2.321-0.499 0.095-0.216 0.243-0.406 0.43-0.551 0.3-0.233 0.674-0.336 1.051-0.289s0.714 0.239 0.947 0.539c0.070 0.091 0.13 0.189 0.176 0.294 0.77-0.126 1.541 0.175 2.021 0.792 0.429 0.552 0.558 1.275 0.348 1.941 0.084 0.072 0.16 0.151 0.227 0.237 0.545 0.701 0.418 1.715-0.283 2.26-0.214 0.166-0.467 0.276-0.734 0.319-0.139 0.522-0.438 0.973-0.866 1.306-0.54 0.42-1.232 0.595-1.906 0.485-0.007 0.622 0.138 1.465 0.834 2.067 0.014 0.012 0.020 0.031 0.016 0.049s-0.017 0.032-0.035 0.037c-0.256 0.074-0.521 0.111-0.786 0.111zM6.127 4.735c-0.578 0-1.142 0.191-1.611 0.555-0.821 0.638-1.191 1.703-0.942 2.713 0.004 0.018-0.001 0.036-0.014 0.049-0.567 0.535-0.634 1.403-0.155 2.019 0.102 0.131 0.224 0.244 0.362 0.335 0.014 0.009 0.022 0.024 0.023 0.040 0.014 0.369 0.142 0.719 0.369 1.011 0.314 0.404 0.788 0.651 1.301 0.678 0.023 0.001 0.042 0.017 0.046 0.039 0.141 0.651 0.588 1.242 1.226 1.623 0.658 0.392 1.437 0.51 2.152 0.329-0.687-0.642-0.814-1.514-0.798-2.142 0-0.015 0.007-0.028 0.019-0.038s0.026-0.013 0.041-0.010c0.665 0.125 1.352-0.041 1.885-0.455 0.419-0.325 0.709-0.769 0.839-1.284 0.005-0.020 0.022-0.035 0.042-0.037 0.262-0.036 0.511-0.141 0.72-0.303 0.657-0.511 0.777-1.461 0.266-2.119-0.069-0.089-0.149-0.171-0.237-0.243-0.016-0.013-0.022-0.035-0.016-0.055 0.214-0.643 0.093-1.346-0.322-1.88-0.465-0.598-1.217-0.884-1.963-0.748-0.023 0.004-0.046-0.008-0.056-0.030-0.046-0.111-0.106-0.214-0.179-0.308-0.217-0.279-0.53-0.457-0.881-0.501s-0.698 0.051-0.977 0.268c-0.184 0.143-0.328 0.334-0.415 0.55-0.009 0.023-0.035 0.036-0.059 0.030-0.221-0.057-0.444-0.085-0.666-0.085z"></path>
<path fill="#ebebeb" style="fill: var(--color1, #ebebeb)" d="M6.438 8.957l-0.884 0.208-0.021-0.088c-0.035-0.15-0.047-0.277-0.035-0.378s0.043-0.2 0.092-0.293c0.049-0.093 0.169-0.266 0.358-0.516 0.101-0.132 0.142-0.241 0.122-0.326s-0.061-0.146-0.122-0.181-0.144-0.041-0.246-0.017c-0.11 0.026-0.193 0.084-0.248 0.174s-0.071 0.228-0.049 0.414l-0.929 0.101c-0.047-0.339 0.011-0.635 0.173-0.887s0.461-0.429 0.895-0.531c0.338-0.080 0.628-0.073 0.869 0.019 0.327 0.124 0.528 0.345 0.603 0.663 0.031 0.132 0.024 0.268-0.020 0.407s-0.158 0.324-0.341 0.554c-0.127 0.161-0.203 0.284-0.226 0.369s-0.021 0.188 0.008 0.309zM5.579 9.408l0.947-0.223 0.197 0.835-0.947 0.223-0.197-0.835z"></path>
<path fill="#ebebeb" style="fill: var(--color1, #ebebeb)" d="M8.688 7.090l-0.613-0.186 0.019-0.061c0.032-0.104 0.069-0.186 0.113-0.243s0.097-0.107 0.16-0.146c0.063-0.040 0.197-0.102 0.402-0.188 0.109-0.045 0.172-0.096 0.19-0.156s0.015-0.111-0.011-0.154c-0.025-0.043-0.073-0.076-0.144-0.098-0.076-0.023-0.147-0.017-0.213 0.018s-0.124 0.114-0.177 0.236l-0.603-0.268c0.092-0.224 0.232-0.384 0.42-0.48s0.433-0.098 0.735-0.007c0.235 0.071 0.409 0.178 0.524 0.32 0.156 0.192 0.2 0.398 0.133 0.619-0.028 0.092-0.080 0.172-0.156 0.242s-0.211 0.142-0.405 0.217c-0.135 0.053-0.225 0.101-0.269 0.145s-0.079 0.107-0.105 0.191zM8.004 7.061l0.657 0.2-0.176 0.58-0.657-0.2 0.176-0.58z"></path>
<path fill="#f5f5f5" style="fill: var(--color4, #f5f5f5)" d="M16 27.364c6.853 0 12.409-0.324 12.409-0.725s-5.556-0.725-12.409-0.725-12.409 0.324-12.409 0.725c0 0.4 5.556 0.725 12.409 0.725z"></path>
<path fill="#407bff" style="fill: var(--color5, #407bff)" d="M10.087 15.836l-0.059-0.025c0.053-0.125 0.083-0.229 0.093-0.317l0.064 0.007c-0.010 0.095-0.042 0.204-0.098 0.335zM10.062 15.103c-0.124-0.273-0.355-0.445-0.668-0.498l0.011-0.063c0.334 0.056 0.582 0.241 0.715 0.534l-0.058 0.026z"></path>
<path fill="#407bff" style="fill: var(--color5, #407bff)" d="M9.727 16.48l-0.63 0.287-0.029-0.063c-0.049-0.107-0.076-0.2-0.082-0.278s0.002-0.155 0.025-0.233c0.023-0.077 0.087-0.223 0.191-0.439 0.056-0.114 0.071-0.201 0.043-0.262s-0.067-0.1-0.118-0.117c-0.051-0.017-0.113-0.009-0.186 0.024-0.078 0.036-0.132 0.091-0.159 0.167s-0.019 0.181 0.025 0.317l-0.679 0.213c-0.086-0.246-0.086-0.476-0.002-0.688s0.281-0.389 0.59-0.53c0.241-0.11 0.458-0.148 0.652-0.115 0.263 0.044 0.446 0.18 0.549 0.406 0.043 0.094 0.058 0.196 0.046 0.307s-0.070 0.266-0.173 0.465c-0.071 0.139-0.11 0.242-0.114 0.309s0.012 0.143 0.052 0.23zM9.152 16.944l0.674-0.307 0.271 0.595-0.674 0.307-0.271-0.595z"></path>
<path fill="#407bff" style="fill: var(--color5, #407bff)" d="M8.169 17.903l-0.32 0.435-0.043-0.032c-0.074-0.055-0.128-0.107-0.162-0.158s-0.058-0.107-0.071-0.168c-0.014-0.061-0.026-0.185-0.037-0.372-0.005-0.099-0.028-0.164-0.070-0.195s-0.084-0.043-0.125-0.035c-0.042 0.008-0.081 0.037-0.118 0.087-0.040 0.054-0.055 0.112-0.045 0.174s0.056 0.131 0.138 0.206l-0.382 0.404c-0.152-0.136-0.24-0.292-0.263-0.468s0.044-0.372 0.201-0.585c0.122-0.166 0.256-0.275 0.401-0.326 0.196-0.070 0.372-0.047 0.529 0.068 0.065 0.048 0.114 0.112 0.148 0.192s0.054 0.208 0.059 0.382c0.004 0.122 0.017 0.207 0.040 0.254s0.063 0.093 0.122 0.137zM7.953 18.438l0.343-0.466 0.411 0.303-0.343 0.466-0.411-0.303z"></path>
<path fill="#407bff" style="fill: var(--color5, #407bff)" d="M14.982 26.409c-0.104 0-0.204-0.057-0.255-0.155-0.257-0.497-0.58-1.080-1.162-1.711-0.068-0.074-0.093-0.178-0.065-0.274 0.216-0.75 0.555-1.774 0.558-1.784 0.050-0.151 0.212-0.232 0.363-0.182s0.232 0.212 0.182 0.363c-0.003 0.009-0.295 0.892-0.507 1.61 0.535 0.606 0.864 1.181 1.14 1.715 0.073 0.141 0.018 0.314-0.123 0.387-0.042 0.022-0.087 0.032-0.132 0.032z"></path>
<path fill="#263238" style="fill: var(--color6, #263238)" d="M15.46 26.639h-2.226l1.18-0.669 0.989 0.038 0.057 0.631z"></path>
<path fill="#263238" style="fill: var(--color6, #263238)" d="M15.246 23.944c1.014-0.317 1.622-1.254 1.36-2.094s-1.297-1.264-2.311-0.947c-1.014 0.317-1.622 1.254-1.36 2.094s1.297 1.264 2.31 0.947z"></path>
<path fill="#263238" style="fill: var(--color6, #263238)" d="M9.706 21.375c-0.113 0-0.22-0.067-0.265-0.177-0.061-0.146 0.009-0.314 0.155-0.375 0.167-0.069 0.19-0.24 0.19-0.241 0.012-0.128 0.108-0.233 0.235-0.256 0.068-0.012 0.135-0.032 0.211-0.054 0.389-0.114 0.871-0.255 2.388 0.17 1.496-0.837 1.513-2.406 1.513-2.474-0-0.158 0.128-0.287 0.286-0.288 0 0 0.001 0 0.001 0 0.158 0 0.286 0.127 0.287 0.285 0.001 0.083-0.009 2.053-1.923 3.040-0.065 0.034-0.141 0.041-0.211 0.021-1.446-0.418-1.853-0.299-2.18-0.203-0.029 0.008-0.058 0.017-0.088 0.025-0.071 0.182-0.218 0.393-0.489 0.505-0.036 0.015-0.073 0.022-0.11 0.022z"></path>
<path fill="#407bff" style="fill: var(--color5, #407bff)" d="M13.061 19.321c-0.544-2.165-1.996-7.748 2.654-8.089 4.171-0.306 5.316 5.246 5.595 7.17 0.162 1.121 0.217 2.138 0.226 2.932 0.012 1.025-0.708 1.909-1.712 2.113-2.273 0.462-4.423 0.527-5.872-0.044-0.392-0.155-0.629-0.554-0.591-0.973 0.056-0.622 0.057-1.691-0.299-3.108z"></path>
<path fill="#000" style="fill: var(--color7, #000)" opacity="0.1" d="M21.309 18.401c-0.262-1.813-1.294-6.851-4.906-7.166-0.42-0.037-0.835 0.17-1.029 0.545-0.161 0.312-0.156 0.691 0.085 1.065 0.796 1.235 2.695 5.502 2.408 7.827-0.131 1.058-0.794 1.903-0.217 3.092 0.697-0.058 1.428-0.166 2.172-0.317 1.005-0.204 1.725-1.087 1.713-2.113-0.010-0.794-0.064-1.811-0.227-2.932z"></path>
<path fill="#263238" style="fill: var(--color6, #263238)" d="M20.687 21.363c-0.016 0-0.029-0.013-0.029-0.028-0.012-0.989-0.088-1.974-0.226-2.929-0.691-4.778-2.552-7.194-5.382-6.986-0.015 0.002-0.030-0.011-0.031-0.027s0.011-0.030 0.027-0.031c2.864-0.211 4.747 2.222 5.443 7.035 0.138 0.957 0.215 1.945 0.227 2.936 0 0.016-0.013 0.029-0.028 0.029-0-0-0-0-0-0z"></path>
<path fill="#263238" style="fill: var(--color6, #263238)" d="M20.643 24.097c1.014-0.317 1.622-1.254 1.36-2.094s-1.297-1.264-2.311-0.947-1.622 1.254-1.36 2.094c0.263 0.84 1.297 1.264 2.311 0.947z"></path>
<path fill="#407bff" style="fill: var(--color5, #407bff)" d="M20.819 26.409c-0.104 0-0.204-0.057-0.255-0.155-0.257-0.497-0.58-1.080-1.162-1.711-0.068-0.074-0.092-0.178-0.065-0.274 0.216-0.75 0.555-1.774 0.558-1.784 0.050-0.151 0.212-0.232 0.363-0.182s0.232 0.212 0.182 0.363c-0.003 0.009-0.295 0.892-0.507 1.61 0.535 0.606 0.864 1.181 1.14 1.715 0.073 0.141 0.018 0.314-0.123 0.387-0.042 0.022-0.087 0.032-0.132 0.032z"></path>
<path fill="#263238" style="fill: var(--color6, #263238)" d="M20.216 17.658c-0.103 0-0.203-0.056-0.254-0.154-0.074-0.14-0.020-0.313 0.12-0.387 0.055-0.029 1.305-0.713 1.656-2.353-0.833-0.348-2.331-1.135-2.659-1.531-0.032-0.038-0.053-0.084-0.062-0.133-0.008-0.043-0.061-0.383 0.064-0.704l-0.151-0.292c-0.073-0.141-0.018-0.314 0.123-0.387s0.314-0.018 0.387 0.123l0.217 0.42c0.047 0.090 0.042 0.197-0.011 0.283-0.069 0.111-0.077 0.273-0.072 0.378 0.369 0.333 1.859 1.123 2.587 1.393 0.128 0.047 0.205 0.178 0.184 0.313-0.325 2.097-1.929 2.961-1.997 2.997-0.043 0.022-0.088 0.033-0.133 0.033z"></path>
<path fill="#263238" style="fill: var(--color6, #263238)" d="M19.3 13.194c-0.027 0-0.054-0.008-0.078-0.023-0.066-0.043-0.085-0.132-0.042-0.199 0.010-0.015 0.247-0.373 0.608-0.47 0.076-0.021 0.155 0.025 0.176 0.101s-0.025 0.155-0.102 0.176c-0.252 0.068-0.44 0.347-0.442 0.35-0.028 0.042-0.073 0.065-0.12 0.065z"></path>
<path fill="#263238" style="fill: var(--color6, #263238)" d="M21.297 26.639h-2.227l1.18-0.669 0.989 0.038 0.057 0.631z"></path>
<path fill="#fff" style="fill: var(--color2, #fff)" d="M16.635 18.064c0.842-0.075 1.471-0.75 1.404-1.508s-0.804-1.312-1.647-1.238c-0.842 0.075-1.471 0.75-1.404 1.508s0.804 1.312 1.647 1.238z"></path>
<path fill="#263238" style="fill: var(--color6, #263238)" d="M16.544 16.711c0.116 0.406 0.029 0.788-0.195 0.851s-0.498-0.214-0.614-0.621-0.029-0.788 0.195-0.851c0.223-0.064 0.499 0.214 0.614 0.621z"></path>
<path fill="#263238" style="fill: var(--color6, #263238)" d="M14.771 16.951c0.967-0.124 2.88-0.67 3.196-0.89-0.249-0.727-1.405-1.349-2.44-0.999-0.933 0.316-0.756 1.889-0.756 1.889z"></path>
<path fill="#263238" style="fill: var(--color6, #263238)" d="M14.959 17.418c1.2-0.228 2.759-0.611 3.205-0.856-0.028 0.783-0.255 1.575-1.48 1.843-1.001 0.219-1.726-0.987-1.726-0.987z"></path>
<path fill="#fff" style="fill: var(--color2, #fff)" d="M13.971 18.17c0.434-0.287 0.491-0.965 0.128-1.514s-1.010-0.761-1.443-0.474c-0.434 0.287-0.491 0.965-0.128 1.514s1.010 0.761 1.443 0.474z"></path>
<path fill="#263238" style="fill: var(--color6, #263238)" d="M13.334 17.196c0.073 0.343 0.010 0.629-0.14 0.639s-0.331-0.26-0.404-0.603c-0.073-0.343-0.010-0.629 0.14-0.639s0.331 0.26 0.404 0.603z"></path>
<path fill="#263238" style="fill: var(--color6, #263238)" d="M12.144 17.064c0.648 0.077 1.936-0.009 2.15-0.126-0.158-0.621-0.925-1.323-1.622-1.233-0.628 0.081-0.528 1.359-0.528 1.359z"></path>
<path fill="#263238" style="fill: var(--color6, #263238)" d="M12.264 17.468c0.806 0.037 1.854 0.016 2.156-0.097-0.028 0.615-0.189 1.201-1.012 1.192-0.672-0.008-1.144-1.094-1.144-1.094z"></path>
<path fill="#263238" style="fill: var(--color6, #263238)" d="M16.902 14.675c-1.209 0-2.012-0.597-2.052-0.627-0.126-0.096-0.151-0.276-0.055-0.402s0.275-0.151 0.401-0.056c0.014 0.010 0.969 0.706 2.294 0.455 0.156-0.029 0.306 0.073 0.336 0.229s-0.073 0.306-0.229 0.336c-0.243 0.046-0.476 0.066-0.695 0.066z"></path>
<path fill="#263238" style="fill: var(--color6, #263238)" d="M11.768 14.18c-0.032 0-0.065-0.005-0.097-0.017-0.149-0.054-0.227-0.218-0.173-0.367 0.152-0.424 0.405-0.699 0.75-0.818 0.626-0.216 1.301 0.204 1.329 0.222 0.134 0.085 0.174 0.262 0.089 0.396s-0.261 0.174-0.395 0.090c-0.131-0.081-0.536-0.269-0.838-0.164-0.174 0.061-0.303 0.214-0.395 0.468-0.042 0.117-0.152 0.19-0.27 0.19z"></path>
<path fill="#263238" style="fill: var(--color6, #263238)" d="M14.031 19.024c-0.008 0-0.016-0.001-0.024-0.003-0.045-0.013-0.072-0.060-0.059-0.105 0.002-0.008 0.056-0.194 0.292-0.315 0.329-0.17 0.831-0.135 1.492 0.104 0.045 0.016 0.068 0.066 0.052 0.11s-0.066 0.068-0.11 0.052c-0.757-0.274-1.151-0.215-1.347-0.117-0.172 0.086-0.211 0.208-0.212 0.213-0.011 0.037-0.046 0.061-0.083 0.061z"></path>
<path fill="#407bff" style="fill: var(--color5, #407bff)" d="M11.32 18.708c-1.67 0.15-2.866 0.842-2.866 0.842 0.495-0.093 2.263 2.095 2.717 3.782 0.839-0.311 1.816-0.523 2.859-0.688-0.632-1.739-1.787-3.71-2.71-3.936z"></path>
<path fill="#fff" style="fill: var(--color2, #fff)" opacity="0.6" d="M11.32 18.708c-1.67 0.15-2.866 0.842-2.866 0.842 0.495-0.093 2.263 2.095 2.717 3.782 0.839-0.311 1.816-0.523 2.859-0.688-0.632-1.739-1.787-3.71-2.71-3.936z"></path>
<path fill="#407bff" style="fill: var(--color5, #407bff)" d="M11.32 18.708c-1.093-0.123-2.868 0.792-2.868 0.792-0.314 0.201-0.229 0.577-0.058 0.735 0.165-0.236 1.999-0.851 2.688-0.933-0.343-0.317-0.024-0.548 0.237-0.594z"></path>
<path fill="#fff" style="fill: var(--color2, #fff)" opacity="0.2" d="M11.32 18.708c-1.093-0.123-2.868 0.792-2.868 0.792-0.314 0.201-0.229 0.577-0.058 0.735 0.165-0.236 1.999-0.851 2.688-0.933-0.343-0.317-0.024-0.548 0.237-0.594z"></path>
<path fill="#263238" style="fill: var(--color6, #263238)" d="M9.706 21.375c-0.094 0-0.186-0.046-0.241-0.13-0.208-0.319-0.078-0.806-0.050-0.9 0.045-0.152 0.205-0.238 0.357-0.193s0.238 0.205 0.193 0.357c-0.047 0.161-0.056 0.366-0.020 0.423 0.087 0.133 0.049 0.311-0.084 0.397-0.048 0.032-0.103 0.047-0.157 0.047z"></path>
<path fill="#252529" style="fill: var(--color8, #252529)" d="M13.736 8.361v0.727h-0.349v-1.257h0.332v0.222h0.015c0.028-0.073 0.074-0.131 0.14-0.173s0.145-0.065 0.238-0.065c0.087 0 0.163 0.019 0.228 0.057s0.115 0.093 0.151 0.164c0.036 0.070 0.054 0.154 0.054 0.252v0.8h-0.349v-0.738c0.001-0.077-0.019-0.137-0.059-0.18s-0.095-0.065-0.164-0.065c-0.047 0-0.088 0.010-0.124 0.030s-0.063 0.050-0.083 0.088c-0.020 0.038-0.030 0.084-0.030 0.138zM15.388 9.113c-0.127 0-0.237-0.027-0.33-0.081s-0.163-0.13-0.214-0.227c-0.050-0.098-0.075-0.211-0.075-0.34 0-0.13 0.025-0.243 0.075-0.34s0.121-0.173 0.214-0.227c0.093-0.055 0.203-0.082 0.33-0.082s0.237 0.027 0.329 0.082c0.093 0.054 0.164 0.13 0.214 0.227s0.075 0.211 0.075 0.34c0 0.129-0.025 0.242-0.075 0.34s-0.122 0.173-0.214 0.227c-0.092 0.054-0.202 0.081-0.329 0.081zM15.39 8.843c0.058 0 0.106-0.016 0.145-0.049s0.068-0.079 0.088-0.136c0.020-0.057 0.030-0.123 0.030-0.196s-0.010-0.138-0.030-0.196c-0.020-0.057-0.049-0.103-0.088-0.136s-0.087-0.050-0.145-0.050c-0.058 0-0.107 0.017-0.147 0.050s-0.069 0.079-0.089 0.136c-0.020 0.057-0.029 0.122-0.029 0.196s0.010 0.138 0.029 0.196c0.020 0.057 0.050 0.103 0.089 0.136s0.089 0.049 0.147 0.049zM16.902 7.831v0.262h-0.757v-0.262h0.757zM16.317 7.53h0.349v1.172c0 0.032 0.005 0.057 0.015 0.075s0.023 0.030 0.041 0.037c0.018 0.007 0.039 0.011 0.062 0.011 0.016 0 0.033-0.001 0.049-0.004s0.029-0.006 0.038-0.007l0.055 0.259c-0.017 0.005-0.042 0.012-0.074 0.019s-0.070 0.012-0.115 0.014c-0.084 0.003-0.158-0.008-0.221-0.034s-0.112-0.065-0.146-0.119c-0.035-0.054-0.052-0.122-0.052-0.205v-1.217zM17.504 8.361v0.727h-0.349v-1.676h0.339v0.641h0.015c0.028-0.074 0.074-0.132 0.137-0.174s0.143-0.064 0.238-0.064c0.087 0 0.163 0.019 0.228 0.057s0.116 0.092 0.152 0.163c0.037 0.070 0.055 0.155 0.054 0.253v0.8h-0.349v-0.738c0-0.077-0.019-0.138-0.059-0.181s-0.094-0.065-0.165-0.065c-0.047 0-0.089 0.010-0.126 0.030s-0.064 0.050-0.085 0.088c-0.020 0.038-0.031 0.084-0.031 0.138zM18.594 9.088v-1.257h0.349v1.257h-0.349zM18.769 7.669c-0.052 0-0.096-0.017-0.133-0.052s-0.055-0.077-0.055-0.125c0-0.048 0.018-0.089 0.055-0.124s0.082-0.052 0.133-0.052c0.052 0 0.096 0.017 0.133 0.052s0.056 0.076 0.056 0.124c0 0.049-0.019 0.090-0.056 0.125s-0.081 0.052-0.133 0.052zM19.57 8.361v0.727h-0.349v-1.257h0.332v0.222h0.015c0.028-0.073 0.074-0.131 0.14-0.173s0.145-0.065 0.238-0.065c0.087 0 0.163 0.019 0.228 0.057s0.115 0.093 0.151 0.164c0.036 0.070 0.054 0.154 0.054 0.252v0.8h-0.349v-0.738c0-0.077-0.019-0.137-0.059-0.18s-0.095-0.065-0.164-0.065c-0.047 0-0.088 0.010-0.124 0.030s-0.063 0.050-0.083 0.088c-0.020 0.038-0.030 0.084-0.030 0.138zM21.221 9.585c-0.113 0-0.21-0.016-0.291-0.047s-0.144-0.072-0.191-0.125c-0.047-0.053-0.078-0.112-0.092-0.178l0.322-0.043c0.010 0.025 0.025 0.049 0.047 0.070s0.049 0.039 0.084 0.052c0.035 0.014 0.079 0.020 0.129 0.020 0.076 0 0.138-0.019 0.187-0.056s0.074-0.098 0.074-0.184v-0.23h-0.015c-0.015 0.035-0.038 0.068-0.069 0.099s-0.070 0.056-0.118 0.076c-0.048 0.020-0.105 0.029-0.172 0.029-0.094 0-0.18-0.022-0.258-0.065s-0.138-0.112-0.184-0.202c-0.045-0.091-0.068-0.206-0.068-0.345 0-0.142 0.023-0.261 0.070-0.357s0.108-0.167 0.185-0.214c0.077-0.047 0.162-0.071 0.254-0.071 0.070 0 0.129 0.012 0.177 0.036s0.086 0.053 0.115 0.088c0.029 0.035 0.052 0.069 0.068 0.103h0.013v-0.211h0.346v1.269c0 0.107-0.026 0.196-0.079 0.268s-0.125 0.126-0.218 0.162c-0.092 0.037-0.198 0.055-0.318 0.055zM21.228 8.808c0.056 0 0.104-0.014 0.142-0.042s0.069-0.069 0.090-0.121c0.021-0.053 0.032-0.116 0.032-0.19s-0.010-0.137-0.031-0.191c-0.021-0.055-0.051-0.097-0.090-0.127s-0.087-0.045-0.143-0.045c-0.057 0-0.106 0.016-0.145 0.047s-0.069 0.073-0.089 0.128c-0.020 0.055-0.030 0.117-0.030 0.189s0.010 0.135 0.030 0.188c0.021 0.052 0.050 0.093 0.089 0.122s0.088 0.043 0.145 0.043zM23.322 7.831v0.262h-0.776v-0.262h0.776zM22.724 9.088v-1.348c0-0.091 0.018-0.167 0.053-0.227s0.085-0.105 0.147-0.135c0.062-0.030 0.133-0.045 0.212-0.045 0.053 0 0.102 0.004 0.146 0.012s0.078 0.016 0.1 0.022l-0.062 0.262c-0.014-0.004-0.031-0.008-0.051-0.012s-0.040-0.006-0.061-0.006c-0.051 0-0.087 0.012-0.107 0.036s-0.030 0.056-0.030 0.099v1.341h-0.348zM24.057 9.113c-0.127 0-0.237-0.027-0.33-0.081s-0.163-0.13-0.214-0.227c-0.050-0.098-0.075-0.211-0.075-0.34 0-0.13 0.025-0.243 0.075-0.34s0.121-0.173 0.214-0.227c0.093-0.055 0.203-0.082 0.33-0.082s0.237 0.027 0.329 0.082c0.093 0.054 0.164 0.13 0.214 0.227s0.075 0.211 0.075 0.34c0 0.129-0.025 0.242-0.075 0.34s-0.122 0.173-0.214 0.227c-0.092 0.054-0.202 0.081-0.329 0.081zM24.059 8.843c0.058 0 0.106-0.016 0.145-0.049s0.068-0.079 0.088-0.136c0.020-0.057 0.030-0.123 0.030-0.196s-0.010-0.138-0.030-0.196c-0.020-0.057-0.049-0.103-0.088-0.136s-0.087-0.050-0.145-0.050c-0.058 0-0.107 0.017-0.147 0.050s-0.069 0.079-0.089 0.136c-0.020 0.057-0.029 0.122-0.029 0.196s0.010 0.138 0.029 0.196c0.020 0.057 0.050 0.103 0.089 0.136s0.089 0.049 0.147 0.049zM25.708 8.553v-0.722h0.349v1.257h-0.335v-0.228h-0.013c-0.028 0.074-0.076 0.133-0.142 0.178s-0.145 0.067-0.24 0.067c-0.084 0-0.158-0.019-0.222-0.057s-0.114-0.092-0.15-0.163c-0.035-0.070-0.053-0.155-0.054-0.253v-0.8h0.349v0.738c0.001 0.074 0.020 0.133 0.060 0.176s0.092 0.065 0.158 0.065c0.042 0 0.081-0.010 0.118-0.029s0.066-0.049 0.088-0.087c0.023-0.038 0.034-0.085 0.034-0.142zM26.684 8.361v0.727h-0.349v-1.257h0.332v0.222h0.015c0.028-0.073 0.074-0.131 0.14-0.173s0.145-0.065 0.238-0.065c0.087 0 0.163 0.019 0.228 0.057s0.115 0.093 0.151 0.164c0.036 0.070 0.054 0.154 0.054 0.252v0.8h-0.349v-0.738c0-0.077-0.019-0.137-0.059-0.18s-0.095-0.065-0.164-0.065c-0.047 0-0.088 0.010-0.124 0.030s-0.063 0.050-0.083 0.088c-0.020 0.038-0.030 0.084-0.030 0.138zM28.232 9.108c-0.096 0-0.182-0.025-0.259-0.074s-0.138-0.122-0.183-0.218c-0.045-0.097-0.067-0.215-0.067-0.355 0-0.144 0.023-0.264 0.070-0.359s0.108-0.168 0.185-0.215c0.077-0.048 0.162-0.072 0.254-0.072 0.070 0 0.129 0.012 0.176 0.036s0.086 0.053 0.114 0.088c0.029 0.035 0.052 0.069 0.067 0.103h0.011v-0.63h0.348v1.676h-0.344v-0.201h-0.015c-0.016 0.035-0.040 0.070-0.070 0.104s-0.068 0.062-0.115 0.084c-0.047 0.022-0.104 0.034-0.172 0.034zM28.343 8.831c0.056 0 0.104-0.015 0.142-0.046s0.069-0.074 0.090-0.13c0.021-0.056 0.032-0.121 0.032-0.196s-0.010-0.14-0.031-0.195-0.051-0.098-0.090-0.128c-0.039-0.030-0.087-0.045-0.143-0.045-0.057 0-0.106 0.016-0.145 0.047s-0.069 0.074-0.089 0.129c-0.020 0.055-0.030 0.119-0.030 0.191s0.010 0.138 0.030 0.194c0.021 0.056 0.050 0.099 0.089 0.131s0.088 0.047 0.145 0.047z"></path>
<path fill="#252529" style="fill: var(--color8, #252529)" d="M18.773 4.026c0 0.183-0.035 0.338-0.104 0.466s-0.163 0.226-0.281 0.294c-0.118 0.067-0.251 0.101-0.399 0.101-0.149 0-0.282-0.034-0.401-0.101s-0.212-0.166-0.281-0.294-0.103-0.283-0.103-0.466c0-0.183 0.034-0.338 0.103-0.466s0.162-0.226 0.281-0.293c0.118-0.068 0.252-0.101 0.401-0.101 0.148 0 0.281 0.034 0.399 0.101s0.213 0.165 0.281 0.293c0.069 0.128 0.104 0.284 0.104 0.466zM18.414 4.026c0-0.118-0.018-0.218-0.053-0.299s-0.084-0.143-0.148-0.185-0.139-0.063-0.224-0.063c-0.086 0-0.16 0.021-0.224 0.063s-0.113 0.104-0.149 0.185c-0.035 0.081-0.052 0.181-0.052 0.299s0.017 0.218 0.052 0.299c0.035 0.081 0.085 0.143 0.149 0.185s0.139 0.063 0.224 0.063 0.16-0.021 0.224-0.063c0.064-0.042 0.113-0.104 0.148-0.185s0.053-0.181 0.053-0.299zM20.576 4.026c0 0.183-0.035 0.338-0.104 0.466s-0.163 0.226-0.281 0.294c-0.118 0.067-0.251 0.101-0.399 0.101-0.149 0-0.282-0.034-0.401-0.101s-0.212-0.166-0.281-0.294-0.103-0.283-0.103-0.466c0-0.183 0.034-0.338 0.103-0.466s0.162-0.226 0.281-0.293c0.118-0.068 0.252-0.101 0.401-0.101 0.148 0 0.281 0.034 0.399 0.101s0.213 0.165 0.281 0.293c0.069 0.128 0.104 0.284 0.104 0.466zM20.216 4.026c0-0.118-0.018-0.218-0.053-0.299s-0.084-0.143-0.148-0.185-0.139-0.063-0.224-0.063c-0.086 0-0.16 0.021-0.224 0.063s-0.113 0.104-0.149 0.185c-0.035 0.081-0.052 0.181-0.052 0.299s0.017 0.218 0.052 0.299c0.035 0.081 0.085 0.143 0.149 0.185s0.139 0.063 0.224 0.063c0.086 0 0.16-0.021 0.224-0.063s0.113-0.104 0.148-0.185c0.035-0.081 0.053-0.181 0.053-0.299zM22.378 4.026c0 0.183-0.035 0.338-0.104 0.466s-0.163 0.226-0.281 0.294c-0.118 0.067-0.251 0.101-0.399 0.101-0.149 0-0.283-0.034-0.401-0.101s-0.212-0.166-0.281-0.294c-0.069-0.128-0.103-0.283-0.103-0.466s0.034-0.338 0.103-0.466c0.069-0.128 0.162-0.226 0.281-0.293s0.252-0.101 0.401-0.101c0.148 0 0.281 0.034 0.399 0.101s0.213 0.165 0.281 0.293c0.069 0.128 0.104 0.284 0.104 0.466zM22.019 4.026c0-0.118-0.018-0.218-0.053-0.299s-0.084-0.143-0.148-0.185c-0.064-0.042-0.139-0.063-0.224-0.063s-0.16 0.021-0.224 0.063c-0.064 0.042-0.113 0.104-0.149 0.185s-0.052 0.181-0.052 0.299 0.017 0.218 0.052 0.299c0.035 0.081 0.085 0.143 0.149 0.185s0.139 0.063 0.224 0.063c0.086 0 0.16-0.021 0.224-0.063s0.113-0.104 0.148-0.185c0.035-0.081 0.053-0.181 0.053-0.299zM22.64 4.864v-1.676h0.661c0.127 0 0.235 0.024 0.325 0.073s0.158 0.115 0.205 0.2c0.047 0.085 0.071 0.183 0.071 0.295s-0.024 0.209-0.072 0.295c-0.048 0.085-0.118 0.151-0.209 0.199s-0.2 0.071-0.329 0.071h-0.421v-0.284h0.364c0.068 0 0.124-0.012 0.169-0.035s0.078-0.057 0.1-0.099c0.022-0.043 0.034-0.091 0.034-0.146s-0.011-0.104-0.034-0.146c-0.022-0.042-0.055-0.074-0.1-0.097s-0.102-0.035-0.17-0.035h-0.239v1.386h-0.354zM25.041 3.67c-0.007-0.066-0.035-0.117-0.084-0.154s-0.117-0.055-0.202-0.055c-0.058 0-0.107 0.008-0.146 0.025s-0.070 0.038-0.092 0.066c-0.021 0.028-0.031 0.061-0.031 0.097-0.001 0.030 0.005 0.056 0.019 0.079s0.034 0.042 0.058 0.058c0.025 0.016 0.053 0.030 0.085 0.042s0.067 0.021 0.103 0.029l0.151 0.036c0.073 0.016 0.14 0.038 0.201 0.065s0.114 0.061 0.159 0.101 0.079 0.087 0.104 0.141c0.025 0.054 0.038 0.116 0.038 0.186-0 0.103-0.027 0.191-0.079 0.267s-0.125 0.133-0.223 0.174c-0.097 0.041-0.213 0.061-0.349 0.061-0.135 0-0.253-0.021-0.353-0.062s-0.178-0.103-0.234-0.184c-0.056-0.082-0.085-0.183-0.088-0.304h0.343c0.004 0.056 0.020 0.103 0.048 0.141s0.067 0.065 0.115 0.084c0.049 0.019 0.103 0.028 0.164 0.028 0.060 0 0.112-0.009 0.156-0.026s0.079-0.042 0.104-0.073c0.025-0.031 0.037-0.067 0.037-0.107 0-0.038-0.011-0.069-0.034-0.095s-0.054-0.047-0.096-0.065c-0.042-0.018-0.094-0.034-0.155-0.049l-0.182-0.046c-0.141-0.034-0.253-0.088-0.335-0.161s-0.122-0.172-0.122-0.295c-0-0.101 0.026-0.19 0.081-0.266s0.131-0.135 0.227-0.178 0.205-0.064 0.327-0.064c0.124 0 0.233 0.021 0.326 0.064s0.166 0.102 0.218 0.178c0.052 0.076 0.079 0.164 0.080 0.263h-0.34zM26.052 3.188l-0.032 1.173h-0.299l-0.033-1.173h0.364zM25.87 4.885c-0.054 0-0.1-0.019-0.139-0.057s-0.058-0.085-0.057-0.139c-0-0.053 0.019-0.099 0.057-0.137s0.085-0.057 0.139-0.057c0.052 0 0.097 0.019 0.137 0.057s0.059 0.084 0.060 0.137c-0 0.036-0.010 0.069-0.029 0.099s-0.042 0.053-0.071 0.071c-0.029 0.017-0.062 0.026-0.097 0.026z"></path>
</symbol>

</defs>
</svg>
